<svg width="217" height="158" viewBox="0 0 217 158" fill="none" xmlns="http://www.w3.org/2000/svg">
<path d="M173.836 24.1293C175.337 19.5283 169.997 13.6589 161.908 11.0197C153.819 8.38055 146.045 9.97098 144.544 14.572C143.042 19.173 148.383 25.0423 156.472 27.6814C164.56 30.3206 172.335 28.7303 173.836 24.1293Z" fill="#6BE5D0" stroke="black" stroke-width="3" stroke-miterlimit="10"/>
<path d="M208.106 155.633C208.106 155.633 127.503 108.479 37.2067 81.6228L115.006 73.73C155.634 98.3545 208.855 119.458 208.111 155.633H208.106Z" fill="#FFF5DC" stroke="black" stroke-width="3" stroke-miterlimit="10"/>
<path d="M212.432 136.018C211.208 141.573 209.589 146.926 207.605 152.051C198.346 143.42 187.013 134.06 173.626 125.059C176.616 118.375 178.984 111.251 180.633 103.763C186.679 76.3308 181.883 49.2524 169.254 27.7698C203.558 48.0735 222.217 91.5699 212.427 136.012L212.432 136.018Z" fill="#6BE5D0" stroke="black" stroke-width="3" stroke-miterlimit="10"/>
<path d="M180.638 103.763C178.989 111.251 176.621 118.375 173.631 125.059C140.602 102.868 95.0518 82.9031 37.2067 81.6281C54.2217 35.9308 99.3879 8.02761 144.301 17.924C153.302 19.9073 161.66 23.2667 169.259 27.7747C181.888 49.2522 186.684 76.3307 180.638 103.768V103.763Z" fill="#FFF5DC" stroke="black" stroke-width="3" stroke-miterlimit="10"/>
<path d="M131.546 91.8989C131.192 91.8837 130.832 91.8178 130.478 91.6914C127.271 90.5378 124.498 84.6183 123.046 75.8249C118.31 77.3377 114.101 78.137 110.858 78.137C109.284 78.137 107.953 77.9449 106.911 77.5705C105.813 77.1759 105.024 76.5736 104.569 75.7844C102.778 72.6728 106.592 67.0314 114.536 61.0308C106.724 54.4332 103.031 48.5086 104.892 45.5337C105.692 44.2536 107.392 43.606 109.942 43.606C112.816 43.606 116.681 44.4511 121.118 46.0448C121.776 46.2826 122.479 46.5507 123.324 46.8897C125.105 37.3728 128.414 31.4785 131.996 31.4785H132.123C132.477 31.4937 132.836 31.5645 133.19 31.691C136.398 32.8445 139.171 38.7641 140.623 47.5575C145.358 46.0447 149.568 45.2454 152.816 45.2454C154.369 45.2454 155.685 45.4325 156.722 45.7968L156.818 45.8323C157.891 46.227 158.66 46.8188 159.105 47.598C160.896 50.7096 157.081 56.351 149.138 62.3515C156.949 68.9491 160.643 74.8737 158.781 77.8487C157.982 79.1287 156.282 79.7764 153.732 79.7764C150.858 79.7764 146.992 78.9315 142.555 77.3378C141.898 77.1 141.189 76.8316 140.349 76.4926C138.568 86.0095 135.259 91.9038 131.677 91.9038H131.551L131.546 91.8989ZM125.353 75.0457C126.77 84.0061 129.411 88.8076 131.278 89.4806C131.384 89.521 131.485 89.5411 131.586 89.5411C132.755 89.5411 134.718 87.3149 136.347 82.4274C137.025 80.3986 137.597 78.0815 138.052 75.5366C135.978 74.636 133.853 73.6089 131.723 72.4806C129.578 73.4419 127.438 74.302 125.358 75.0457H125.353ZM140.744 74.1198C141.726 74.5195 142.576 74.8485 143.345 75.1267C147.149 76.4928 150.499 77.2769 153.028 77.3983C153.246 77.4084 153.453 77.4136 153.656 77.4136C155.234 77.4136 156.373 77.1049 156.697 76.5838C157.273 75.6579 156.231 72.85 152.578 68.8631C151.07 67.2188 149.254 65.5087 147.17 63.7733C145.389 65.028 143.471 66.2624 141.462 67.4463C141.306 69.7433 141.063 71.9897 140.744 74.1198ZM116.458 62.6094C114.344 64.1829 112.492 65.7514 110.954 67.2793C107.225 70.9778 106.127 73.71 106.684 74.6764C106.835 74.9445 107.189 75.1822 107.711 75.3644C108.49 75.6427 109.532 75.7844 110.807 75.7844C113.868 75.7844 118.083 74.9545 122.697 73.4468C122.418 71.3117 122.221 69.0502 122.105 66.7279C120.116 65.3872 118.214 64.0008 116.458 62.6094ZM134.404 71.2308C135.72 71.8936 137.071 72.5362 138.432 73.1383C138.624 71.7773 138.786 70.3556 138.912 68.8985C138.159 69.3133 137.405 69.7131 136.661 70.0976C135.932 70.4771 135.189 70.8464 134.404 71.2259V71.2308ZM124.619 68.3723C124.716 69.8395 124.852 71.2713 125.019 72.6424C126.365 72.1517 127.726 71.6154 129.077 71.0386C128.232 70.558 127.503 70.138 126.825 69.7332C126.097 69.2981 125.358 68.8427 124.619 68.3772V68.3723ZM124.473 65.4781C125.652 66.2522 126.861 67.0112 128.06 67.7297C129.264 68.4481 130.504 69.1615 131.753 69.8395C133.018 69.2526 134.268 68.6404 135.482 68.0131C136.706 67.3806 137.931 66.7179 139.115 66.0399C139.186 64.6941 139.231 63.3228 139.241 61.977C139.252 60.6413 139.241 59.2752 139.191 57.9092C138.012 57.135 136.803 56.3763 135.604 55.6578C134.394 54.9343 133.155 54.226 131.91 53.5481C130.66 54.1299 129.406 54.742 128.181 55.3745C126.962 56.0069 125.743 56.6696 124.549 57.3476C124.478 58.6934 124.432 60.0594 124.422 61.4103C124.412 62.751 124.422 64.1171 124.473 65.4781ZM141.66 59.5839C141.675 60.4086 141.675 61.2333 141.67 62.0479C141.66 62.8827 141.645 63.7227 141.614 64.5524C142.864 63.7834 144.073 62.9941 145.217 62.2048C144.088 61.3244 142.894 60.4441 141.66 59.5789V59.5839ZM118.447 61.1827C119.57 62.058 120.764 62.9384 122.004 63.8086C121.988 62.9839 121.988 62.1593 121.994 61.3396C122.004 60.5149 122.019 59.675 122.049 58.8351C120.795 59.6092 119.585 60.3935 118.447 61.1827ZM141.564 56.6645C143.557 58.0053 145.454 59.3917 147.21 60.783C149.33 59.2095 151.177 57.636 152.715 56.1131C156.444 52.4146 157.541 49.6825 156.985 48.7161C156.833 48.453 156.479 48.2102 155.963 48.0281L155.928 48.0128C155.153 47.7396 154.121 47.6032 152.867 47.6032C149.806 47.6032 145.591 48.4327 140.977 49.9405C141.255 52.0756 141.452 54.3373 141.569 56.6596L141.564 56.6645ZM110.013 45.9788C108.434 45.9788 107.296 46.2877 106.972 46.8037C106.395 47.7296 107.437 50.5375 111.09 54.5244C112.593 56.1637 114.414 57.8789 116.499 59.6143C118.28 58.3646 120.197 57.1302 122.206 55.9412C122.363 53.6442 122.601 51.3976 122.925 49.2675C121.943 48.8678 121.093 48.5389 120.324 48.2657C116.519 46.8997 113.17 46.1105 110.64 45.9942C110.423 45.984 110.215 45.9788 110.013 45.9788ZM134.592 52.3538C135.426 52.8244 136.15 53.2444 136.843 53.6592C137.577 54.0994 138.315 54.5548 139.049 55.0153C138.953 53.548 138.816 52.1162 138.649 50.7451C137.304 51.2359 135.943 51.7721 134.592 52.3489V52.3538ZM125.232 50.2493C125.039 51.6153 124.877 53.037 124.751 54.4891C125.505 54.0742 126.259 53.6694 127.002 53.2899C127.726 52.9155 128.485 52.536 129.259 52.1616C127.949 51.4988 126.598 50.8613 125.232 50.2542V50.2493ZM125.616 47.8509C127.685 48.7515 129.81 49.7786 131.946 50.9069C134.091 49.9456 136.231 49.0856 138.31 48.3418C136.894 39.3815 134.253 34.5799 132.386 33.907L132.355 33.8968C132.259 33.8665 132.168 33.8462 132.077 33.8462L132.047 33.5932V33.8462C130.908 33.8462 128.945 36.0724 127.316 40.9599C126.643 42.9887 126.066 45.306 125.611 47.8509H125.616Z" fill="#F765B8"/>
<path d="M131.991 31.7311C132.032 31.7311 132.067 31.7311 132.108 31.7311C132.442 31.7412 132.775 31.8071 133.099 31.9285L132.477 33.6637C132.345 33.6182 132.219 33.593 132.092 33.5879C132.077 33.5879 132.067 33.5879 132.052 33.5879C130.777 33.5879 128.763 35.8292 127.079 40.8735C126.375 42.9884 125.788 45.3917 125.328 47.9973C127.458 48.9181 129.674 49.9807 131.931 51.1798C134.207 50.1577 136.444 49.2622 138.589 48.5033C137.228 39.7099 134.587 34.4227 132.472 33.6637L133.094 31.9285C136.322 33.0871 139.024 39.2696 140.41 47.8859C145.232 46.3225 149.532 45.4928 152.801 45.4928C154.329 45.4928 155.629 45.6751 156.661 46.0444L156.039 47.7797C155.24 47.4913 154.162 47.3446 152.857 47.3446C149.877 47.3446 145.672 48.1138 140.689 49.7632C140.987 51.9793 141.194 54.342 141.311 56.7958C143.421 58.2176 145.394 59.6595 147.2 61.0964C149.366 59.4976 151.288 57.8786 152.887 56.2899C156.732 52.475 157.825 49.672 157.198 48.5892C157.01 48.2654 156.621 47.9972 156.039 47.7898L156.661 46.0546C157.683 46.4239 158.437 46.9754 158.867 47.7293C160.668 50.856 156.439 56.5681 148.713 62.341C156.307 68.7008 160.415 74.7267 158.549 77.7169C157.779 78.9463 156.085 79.528 153.712 79.528C150.853 79.528 147.008 78.683 142.621 77.1044C141.812 76.8161 140.982 76.4874 140.137 76.1484C138.452 85.4022 135.265 91.6557 131.657 91.6557C131.617 91.6557 131.582 91.6557 131.541 91.6557C131.207 91.6455 130.878 91.5797 130.549 91.4583C127.321 90.2996 124.62 84.1169 123.233 75.5006C118.412 77.064 114.116 77.8938 110.843 77.8938C109.315 77.8938 108.009 77.7117 106.982 77.3423C105.96 76.973 105.206 76.4215 104.776 75.6676C102.975 72.5409 107.205 66.8288 114.931 61.0559C107.336 54.6961 103.228 48.6702 105.095 45.68C105.864 44.4506 107.559 43.8687 109.932 43.8687C112.79 43.8687 116.636 44.7137 121.022 46.2922C121.832 46.5806 122.662 46.9045 123.507 47.2485C125.191 37.9947 128.379 31.7412 131.986 31.7412M116.479 59.9378C118.31 58.6425 120.304 57.3522 122.439 56.0974C122.601 53.6486 122.859 51.3113 123.193 49.1154C122.247 48.7309 121.311 48.3615 120.4 48.0326C116.57 46.6565 113.195 45.8672 110.645 45.7457C110.428 45.7356 110.215 45.7307 110.008 45.7307C108.328 45.7307 107.129 46.0748 106.75 46.6769C106.102 47.7141 107.134 50.5979 110.898 54.7011C112.467 56.4112 114.354 58.1771 116.479 59.9378ZM124.453 54.944C125.318 54.4633 126.208 53.9878 127.114 53.5173C128.02 53.0468 128.925 52.6015 129.826 52.1714C128.207 51.3416 126.603 50.5828 125.024 49.8897C124.787 51.5138 124.594 53.2035 124.453 54.944ZM139.328 55.5055C139.216 53.7094 139.059 52.0095 138.857 50.4107C137.304 50.9723 135.69 51.6048 134.02 52.3283C134.916 52.8292 135.811 53.3401 136.712 53.8814C137.602 54.4177 138.478 54.9591 139.328 55.5055ZM131.743 70.1326C133.003 69.5507 134.288 68.9234 135.599 68.2454C136.884 67.5826 138.139 66.8946 139.358 66.1964C139.434 64.8152 139.479 63.4086 139.495 61.9818C139.51 60.5297 139.489 59.1282 139.439 57.7773C138.24 56.9881 137 56.2089 135.735 55.4499C134.465 54.691 133.19 53.9625 131.921 53.2745C130.661 53.8563 129.376 54.4837 128.065 55.1616C126.78 55.8244 125.525 56.5124 124.306 57.2106C124.23 58.5919 124.185 59.9984 124.169 61.4252C124.154 62.8773 124.174 64.2788 124.225 65.6297C125.424 66.419 126.664 67.1982 127.929 67.9571C129.198 68.716 130.473 69.4445 131.743 70.1326ZM122.267 64.304C122.247 63.3326 122.237 62.3461 122.247 61.3494C122.257 60.3476 122.282 59.3559 122.323 58.3794C120.815 59.2952 119.378 60.2311 118.022 61.1772C119.358 62.2296 120.779 63.2719 122.267 64.304ZM141.341 65.0276C142.849 64.1119 144.286 63.1757 145.642 62.2296C144.306 61.1772 142.884 60.1351 141.397 59.103C141.417 60.0744 141.427 61.0609 141.417 62.0577C141.407 63.0594 141.382 64.0512 141.341 65.0276ZM110.802 76.0523C113.782 76.0523 117.987 75.2831 122.97 73.6337C122.672 71.4176 122.464 69.0549 122.348 66.6011C120.238 65.1793 118.265 63.7373 116.459 62.3054C114.293 63.9042 112.371 65.5233 110.772 67.112C106.927 70.9268 105.834 73.7299 106.461 74.8126C106.648 75.1364 107.038 75.4046 107.62 75.612C108.419 75.9004 109.497 76.0471 110.802 76.0471M153.651 77.6764C155.331 77.6764 156.53 77.3322 156.904 76.7302C157.552 75.693 156.52 72.8091 152.755 68.7059C151.187 66.9958 149.3 65.23 147.175 63.4693C145.343 64.7645 143.35 66.0546 141.215 67.3093C141.053 69.7581 140.8 72.0958 140.461 74.2916C141.407 74.6761 142.343 75.0453 143.259 75.3741C147.089 76.7503 150.464 77.5396 153.013 77.661C153.231 77.6712 153.449 77.6764 153.651 77.6764ZM124.802 72.9963C126.355 72.4347 127.969 71.8023 129.639 71.0788C128.743 70.5779 127.848 70.0667 126.947 69.5253C126.057 68.989 125.181 68.4477 124.331 67.9013C124.443 69.6974 124.599 71.3975 124.802 72.9963ZM138.634 73.5173C138.872 71.8932 139.064 70.2035 139.206 68.463C138.341 68.9437 137.45 69.4192 136.545 69.8897C135.639 70.3603 134.733 70.8056 133.833 71.2356C135.452 72.0654 137.056 72.8242 138.634 73.5173ZM131.612 89.809C132.887 89.809 134.901 87.5677 136.585 82.5234C137.289 80.4085 137.875 78.0052 138.336 75.3996C136.206 74.4788 133.99 73.4162 131.733 72.2171C129.456 73.2392 127.22 74.1347 125.075 74.8936C126.436 83.687 129.077 88.9742 131.192 89.7332C131.323 89.7787 131.45 89.8039 131.576 89.809C131.592 89.809 131.602 89.809 131.617 89.809M132.001 31.2402C128.273 31.2402 124.974 36.9524 123.137 46.5553C122.414 46.2669 121.786 46.0343 121.209 45.8218C116.747 44.218 112.851 43.3729 109.947 43.3729C107.301 43.3729 105.53 44.0611 104.685 45.4221C102.747 48.5286 106.279 54.3469 114.141 61.0406C106.142 67.1373 102.489 72.6825 104.361 75.9307C104.847 76.7757 105.682 77.4132 106.836 77.828C107.908 78.2126 109.264 78.4098 110.868 78.4098C114.076 78.4098 118.209 77.6358 122.859 76.1736C124.341 84.8961 127.149 90.7804 130.408 91.9491C130.782 92.0858 131.167 92.1616 131.551 92.1717C131.597 92.1717 131.642 92.1717 131.683 92.1717C135.411 92.1717 138.71 86.4596 140.547 76.8567C141.27 77.145 141.893 77.3779 142.475 77.5904C146.937 79.1942 150.833 80.044 153.737 80.044C156.383 80.044 158.154 79.356 158.999 77.995C160.937 74.8885 157.405 69.07 149.543 62.3763C157.542 56.2797 161.195 50.7346 159.323 47.4864C158.908 46.7629 158.235 46.1911 157.319 45.7813L157.4 45.5637H156.768L156.373 45.4221V45.4372C155.381 45.1539 154.187 45.0123 152.816 45.0123C149.608 45.0123 145.475 45.7863 140.825 47.2485C139.414 38.9408 136.803 33.2136 133.742 31.6755L133.752 31.6451L133.276 31.473L132.801 31.301L132.791 31.3314C132.573 31.2859 132.356 31.2555 132.133 31.2454C132.087 31.2454 132.042 31.2454 132.001 31.2454V31.2402ZM125.91 47.709C126.36 45.2501 126.917 43.0085 127.569 41.0455C129.264 35.9556 131.187 34.104 132.062 34.104C132.153 34.104 132.229 34.1243 132.315 34.1546H132.33C134.167 34.8427 136.697 39.8567 138.042 48.1846C136.054 48.898 134.015 49.7226 131.966 50.6333C129.927 49.5556 127.893 48.5742 125.91 47.709ZM116.519 59.3053C114.506 57.6205 112.745 55.9559 111.283 54.3622C107.503 50.2387 106.77 47.6281 107.195 46.9501C107.397 46.6212 108.262 46.2416 110.023 46.2416C110.22 46.2416 110.428 46.2417 110.635 46.2569C113.14 46.3733 116.464 47.1575 120.243 48.5134H120.258V48.5183C120.972 48.7764 121.756 49.075 122.651 49.4393C122.348 51.4732 122.12 53.6134 121.968 55.8042C120.056 56.9375 118.224 58.1163 116.519 59.3053ZM141.26 50.1273C145.768 48.6651 149.882 47.8659 152.872 47.8659C154.106 47.8659 155.108 47.9973 155.857 48.2604L155.887 48.2705C156.343 48.4325 156.656 48.64 156.778 48.8474C157.188 49.5608 156.403 52.1157 152.548 55.9356C151.06 57.413 149.269 58.936 147.225 60.464C145.536 59.1333 143.724 57.8127 141.822 56.5275C141.711 54.3165 141.523 52.1664 141.26 50.1224V50.1273ZM125.055 54.0484C125.161 52.8797 125.293 51.7364 125.444 50.6283C126.542 51.1191 127.635 51.6352 128.698 52.1665C128.08 52.47 127.483 52.7683 126.896 53.0719C126.289 53.3856 125.672 53.7145 125.055 54.0484ZM135.174 52.3992C136.267 51.9438 137.359 51.5086 138.447 51.1089C138.579 52.2219 138.685 53.3757 138.771 54.5495C138.174 54.1751 137.577 53.8106 136.985 53.4513C136.418 53.1124 135.831 52.7684 135.174 52.394V52.3992ZM124.802 57.5142C125.95 56.8616 127.129 56.2189 128.303 55.6117C129.487 54.9995 130.696 54.4076 131.905 53.8409C133.115 54.4987 134.314 55.1868 135.482 55.885C136.651 56.5832 137.815 57.3168 138.953 58.0555C138.994 59.3659 139.009 60.6814 138.999 61.9766C138.989 63.2769 138.948 64.5925 138.877 65.8928C137.729 66.5455 136.55 67.1879 135.376 67.795C134.192 68.4072 132.983 68.9992 131.774 69.5659C130.565 68.9081 129.365 68.22 128.197 67.5218C127.028 66.8236 125.864 66.0899 124.726 65.3513C124.685 64.0409 124.67 62.7254 124.68 61.4302C124.69 60.1299 124.731 58.8095 124.802 57.5142ZM118.882 61.2076C119.813 60.5701 120.785 59.9376 121.786 59.3103C121.766 59.9933 121.751 60.6765 121.746 61.3494C121.741 62.002 121.741 62.6648 121.746 63.3225C120.754 62.6193 119.793 61.911 118.877 61.2026L118.882 61.2076ZM141.888 64.1066C141.908 63.4236 141.923 62.7407 141.928 62.0678C141.933 61.4151 141.933 60.7524 141.928 60.0946C142.92 60.7979 143.881 61.5062 144.797 62.2145C143.866 62.852 142.895 63.4845 141.893 64.1118L141.888 64.1066ZM110.807 75.5513C109.557 75.5513 108.546 75.4148 107.792 75.1466C107.336 74.9847 107.023 74.7772 106.901 74.5698C106.491 73.8564 107.276 71.3013 111.131 67.4763C112.624 65.999 114.41 64.476 116.454 62.948C118.143 64.2787 119.96 65.5993 121.857 66.8844C121.968 69.0954 122.156 71.2458 122.419 73.2898C117.911 74.752 113.797 75.5513 110.807 75.5513ZM141.711 67.6179C143.623 66.4846 145.455 65.3108 147.16 64.1168C149.173 65.8016 150.934 67.4662 152.396 69.0599C156.176 73.1834 156.909 75.794 156.484 76.472C156.282 76.8009 155.417 77.1805 153.656 77.1805C153.459 77.1805 153.251 77.1804 153.044 77.1652C150.539 77.0488 147.22 76.2646 143.436 74.9087C142.717 74.6507 141.928 74.3471 141.028 73.9828C141.331 71.9489 141.559 69.8087 141.711 67.6179ZM125.232 72.3132C125.1 71.2002 124.994 70.0464 124.908 68.8726C125.505 69.247 126.102 69.6115 126.694 69.9708C127.261 70.3097 127.848 70.6537 128.505 71.0281C127.413 71.4835 126.314 71.9185 125.232 72.3182V72.3132ZM134.976 71.2559C135.594 70.9523 136.191 70.6538 136.778 70.3502C137.39 70.0365 138.007 69.7076 138.619 69.3737C138.513 70.5424 138.381 71.6857 138.23 72.7937C137.132 72.303 136.044 71.7871 134.976 71.2559ZM125.637 75.2375C127.62 74.5241 129.664 73.6995 131.713 72.7888C133.757 73.8665 135.786 74.8479 137.769 75.7131C137.319 78.172 136.762 80.4136 136.11 82.3766C134.415 87.4665 132.492 89.3181 131.617 89.3181H131.597C131.526 89.3181 131.45 89.2978 131.364 89.2675C129.522 88.6047 126.987 83.5857 125.642 75.2375H125.637Z" fill="#F765B8"/>
<path d="M131.941 65.4933C131.47 65.4933 131.005 65.4123 130.554 65.2504C129.563 64.8963 128.763 64.193 128.303 63.2672C127.843 62.3413 127.772 61.3039 128.116 60.3528C128.647 58.8754 130.099 57.8838 131.723 57.8838C132.194 57.8838 132.659 57.9647 133.11 58.1266C135.159 58.8653 136.251 61.0612 135.548 63.0243C135.017 64.5017 133.57 65.4933 131.941 65.4933Z" fill="#F765B8"/>
<path d="M131.723 58.1424C132.153 58.1424 132.593 58.2184 133.023 58.3702C134.946 59.0583 135.968 61.1074 135.31 62.944C134.799 64.3657 133.428 65.246 131.94 65.246C131.51 65.246 131.07 65.1702 130.64 65.0184C128.718 64.3303 127.696 62.2812 128.353 60.4446C128.864 59.0229 130.235 58.1424 131.723 58.1424ZM131.723 57.6365C129.987 57.6365 128.439 58.6939 127.878 60.2724C127.124 62.3671 128.287 64.7096 130.468 65.4888C130.944 65.6608 131.439 65.747 131.94 65.747C133.676 65.747 135.224 64.6896 135.786 63.111C136.539 61.0164 135.376 58.6738 133.195 57.8946C132.72 57.7226 132.224 57.6365 131.723 57.6365Z" fill="#F765B8"/>
<path d="M170.459 123.167C171.248 123.657 170.853 124.872 169.927 124.796C117.501 120.647 54.7532 97.5251 40.6473 92.1114C40.622 92.1064 40.6069 92.0962 40.5867 92.0912C40.2325 91.9546 39.9137 91.8281 39.6203 91.7219C39.1649 91.5448 38.7905 91.398 38.5021 91.2816C38.3858 91.2411 38.2896 91.1905 38.1985 91.1551C38.0417 91.1045 37.9001 91.0388 37.7533 90.9731C13.1895 80.7529 -1.90289 58.3849 2.88338 36.6797C8.43364 11.5037 38.6135 -3.24987 70.2909 3.73222C95.6592 9.32295 114.298 27.1527 117.87 46.9656C130.762 87.0975 146.745 108.504 170.469 123.172L170.459 123.167Z" fill="#6BE5D0" stroke="black" stroke-width="3" stroke-miterlimit="10"/>
</svg>
