<svg width="764" height="20" viewBox="0 0 764 20" fill="none" xmlns="http://www.w3.org/2000/svg">
<path d="M0.711756 9.99857L9.19531 1.6234L17.6789 9.99857L9.19531 18.3737L0.711756 9.99857Z" fill="#F765B8" stroke="black" stroke-miterlimit="10"/>
<path d="M226.172 9.99857L234.656 1.6234L243.139 9.99857L234.656 18.3737L226.172 9.99857Z" fill="#F765B8" stroke="black" stroke-miterlimit="10"/>
<path d="M451.633 9.99857L460.116 1.6234L468.6 9.99857L460.116 18.3737L451.633 9.99857Z" fill="#F765B8" stroke="black" stroke-miterlimit="10"/>
<path d="M677.094 9.99857L685.578 1.6234L694.061 9.99857L685.578 18.3737L677.094 9.99857Z" fill="#F765B8" stroke="black" stroke-miterlimit="10"/>
<path d="M18.0189 9.99857L26.5024 1.6234L34.986 9.99857L26.5024 18.3737L18.0189 9.99857Z" fill="#F765B8" stroke="black" stroke-miterlimit="10"/>
<path d="M243.48 9.99857L251.963 1.6234L260.447 9.99857L251.963 18.3737L243.48 9.99857Z" fill="#F765B8" stroke="black" stroke-miterlimit="10"/>
<path d="M468.94 9.99857L477.424 1.6234L485.907 9.99857L477.424 18.3737L468.94 9.99857Z" fill="#F765B8" stroke="black" stroke-miterlimit="10"/>
<path d="M694.401 9.99857L702.884 1.6234L711.368 9.99857L702.884 18.3737L694.401 9.99857Z" fill="#F765B8" stroke="black" stroke-miterlimit="10"/>
<path d="M35.3248 9.99908L43.8083 1.6239L52.2919 9.99908L43.8083 18.3742L35.3248 9.99908Z" fill="#F765B8" stroke="black" stroke-miterlimit="10"/>
<path d="M260.785 9.99908L269.269 1.6239L277.753 9.99908L269.269 18.3742L260.785 9.99908Z" fill="#F765B8" stroke="black" stroke-miterlimit="10"/>
<path d="M486.247 9.99908L494.73 1.6239L503.214 9.99908L494.73 18.3742L486.247 9.99908Z" fill="#F765B8" stroke="black" stroke-miterlimit="10"/>
<path d="M711.707 9.99908L720.191 1.6239L728.674 9.99908L720.191 18.3742L711.707 9.99908Z" fill="#F765B8" stroke="black" stroke-miterlimit="10"/>
<path d="M52.6322 9.9992L61.1157 1.62402L69.5993 9.9992L61.1157 18.3744L52.6322 9.9992Z" fill="#F765B8" stroke="black" stroke-miterlimit="10"/>
<path d="M278.093 9.9992L286.576 1.62402L295.06 9.9992L286.576 18.3744L278.093 9.9992Z" fill="#F765B8" stroke="black" stroke-miterlimit="10"/>
<path d="M503.554 9.9992L512.037 1.62402L520.521 9.9992L512.037 18.3744L503.554 9.9992Z" fill="#F765B8" stroke="black" stroke-miterlimit="10"/>
<path d="M729.014 9.9992L737.498 1.62402L745.981 9.9992L737.498 18.3744L729.014 9.9992Z" fill="#F765B8" stroke="black" stroke-miterlimit="10"/>
<path d="M69.9388 9.99932L78.4224 1.62415L86.9059 9.99932L78.4224 18.3745L69.9388 9.99932Z" fill="#F765B8" stroke="black" stroke-miterlimit="10"/>
<path d="M295.4 9.99932L303.883 1.62415L312.367 9.99932L303.883 18.3745L295.4 9.99932Z" fill="#F765B8" stroke="black" stroke-miterlimit="10"/>
<path d="M520.86 9.99932L529.344 1.62415L537.827 9.99932L529.344 18.3745L520.86 9.99932Z" fill="#F765B8" stroke="black" stroke-miterlimit="10"/>
<path d="M746.321 9.99932L754.805 1.62415L763.288 9.99932L754.805 18.3745L746.321 9.99932Z" fill="#F765B8" stroke="black" stroke-miterlimit="10"/>
<path d="M87.2454 9.99772L95.729 1.62254L104.213 9.99772L95.729 18.3729L87.2454 9.99772Z" fill="#F765B8" stroke="black" stroke-miterlimit="10"/>
<path d="M312.706 9.99772L321.19 1.62254L329.673 9.99772L321.19 18.3729L312.706 9.99772Z" fill="#F765B8" stroke="black" stroke-miterlimit="10"/>
<path d="M538.167 9.99772L546.651 1.62254L555.134 9.99772L546.651 18.3729L538.167 9.99772Z" fill="#F765B8" stroke="black" stroke-miterlimit="10"/>
<path d="M104.552 9.99784L113.036 1.62267L121.519 9.99784L113.036 18.373L104.552 9.99784Z" fill="#F765B8" stroke="black" stroke-miterlimit="10"/>
<path d="M330.013 9.99784L338.497 1.62267L346.98 9.99784L338.497 18.373L330.013 9.99784Z" fill="#F765B8" stroke="black" stroke-miterlimit="10"/>
<path d="M555.474 9.99784L563.958 1.62267L572.441 9.99784L563.958 18.373L555.474 9.99784Z" fill="#F765B8" stroke="black" stroke-miterlimit="10"/>
<path d="M121.86 9.99784L130.343 1.62267L138.827 9.99784L130.343 18.373L121.86 9.99784Z" fill="#F765B8" stroke="black" stroke-miterlimit="10"/>
<path d="M347.32 9.99784L355.804 1.62267L364.288 9.99784L355.804 18.373L347.32 9.99784Z" fill="#F765B8" stroke="black" stroke-miterlimit="10"/>
<path d="M572.781 9.99784L581.265 1.62267L589.748 9.99784L581.265 18.373L572.781 9.99784Z" fill="#F765B8" stroke="black" stroke-miterlimit="10"/>
<path d="M139.166 10.0021L147.65 1.62697L156.133 10.0021L147.65 18.3773L139.166 10.0021Z" fill="#F765B8" stroke="black" stroke-miterlimit="10"/>
<path d="M364.627 10.0021L373.11 1.62697L381.594 10.0021L373.11 18.3773L364.627 10.0021Z" fill="#F765B8" stroke="black" stroke-miterlimit="10"/>
<path d="M590.087 10.0021L598.571 1.62697L607.054 10.0021L598.571 18.3773L590.087 10.0021Z" fill="#F765B8" stroke="black" stroke-miterlimit="10"/>
<path d="M156.473 10.0023L164.957 1.62709L173.441 10.0023L164.957 18.3774L156.473 10.0023Z" fill="#F765B8" stroke="black" stroke-miterlimit="10"/>
<path d="M381.934 10.0023L390.417 1.62709L398.901 10.0023L390.417 18.3774L381.934 10.0023Z" fill="#F765B8" stroke="black" stroke-miterlimit="10"/>
<path d="M607.395 10.0023L615.878 1.62709L624.362 10.0023L615.878 18.3774L607.395 10.0023Z" fill="#F765B8" stroke="black" stroke-miterlimit="10"/>
<path d="M173.78 9.99869L182.263 1.62352L190.747 9.99869L182.263 18.3739L173.78 9.99869Z" fill="#F765B8" stroke="black" stroke-miterlimit="10"/>
<path d="M399.241 9.99869L407.724 1.62352L416.208 9.99869L407.724 18.3739L399.241 9.99869Z" fill="#F765B8" stroke="black" stroke-miterlimit="10"/>
<path d="M624.702 9.99869L633.186 1.62352L641.669 9.99869L633.186 18.3739L624.702 9.99869Z" fill="#F765B8" stroke="black" stroke-miterlimit="10"/>
<path d="M191.087 10.0002L199.57 1.62506L208.054 10.0002L199.57 18.3754L191.087 10.0002Z" fill="#F765B8" stroke="black" stroke-miterlimit="10"/>
<path d="M416.547 10.0002L425.031 1.62506L433.515 10.0002L425.031 18.3754L416.547 10.0002Z" fill="#F765B8" stroke="black" stroke-miterlimit="10"/>
<path d="M642.008 10.0002L650.492 1.62506L658.975 10.0002L650.492 18.3754L642.008 10.0002Z" fill="#F765B8" stroke="black" stroke-miterlimit="10"/>
<path d="M208.394 10.0005L216.877 1.62531L225.361 10.0005L216.877 18.3757L208.394 10.0005Z" fill="#F765B8" stroke="black" stroke-miterlimit="10"/>
<path d="M433.854 10.0005L442.338 1.62531L450.821 10.0005L442.338 18.3757L433.854 10.0005Z" fill="#F765B8" stroke="black" stroke-miterlimit="10"/>
<path d="M659.315 10.0005L667.799 1.62531L676.282 10.0005L667.799 18.3757L659.315 10.0005Z" fill="#F765B8" stroke="black" stroke-miterlimit="10"/>
</svg>
