<svg width="144" height="65" viewBox="0 0 144 65" fill="none" xmlns="http://www.w3.org/2000/svg">
<g filter="url(#filter0_d_8484_479)">
<ellipse cx="72" cy="32" rx="72" ry="32" fill="#FFF2D3"/>
<path d="M143.532 32C143.532 36.266 141.589 40.3653 138.003 44.1332C134.415 47.9036 129.201 51.3203 122.722 54.1998C109.765 59.9584 91.8325 63.5321 72 63.5321C52.1675 63.5321 34.2351 59.9584 21.2784 54.1998C14.7994 51.3203 9.5852 47.9036 5.9971 44.1332C2.41129 40.3653 0.467951 36.266 0.467951 32C0.467951 27.734 2.41129 23.6347 5.9971 19.8668C9.5852 16.0964 14.7994 12.6797 21.2784 9.8002C34.2351 4.04164 52.1675 0.467951 72 0.467951C91.8325 0.467951 109.765 4.04164 122.722 9.8002C129.201 12.6797 134.415 16.0964 138.003 19.8668C141.589 23.6347 143.532 27.734 143.532 32Z" stroke="black" stroke-width="0.935902"/>
</g>
<defs>
<filter id="filter0_d_8484_479" x="0" y="0" width="144" height="64.6239" filterUnits="userSpaceOnUse" color-interpolation-filters="sRGB">
<feFlood flood-opacity="0" result="BackgroundImageFix"/>
<feColorMatrix in="SourceAlpha" type="matrix" values="0 0 0 0 0 0 0 0 0 0 0 0 0 0 0 0 0 0 127 0" result="hardAlpha"/>
<feOffset dy="0.623934"/>
<feComposite in2="hardAlpha" operator="out"/>
<feColorMatrix type="matrix" values="0 0 0 0 0 0 0 0 0 0 0 0 0 0 0 0 0 0 1 0"/>
<feBlend mode="normal" in2="BackgroundImageFix" result="effect1_dropShadow_8484_479"/>
<feBlend mode="normal" in="SourceGraphic" in2="effect1_dropShadow_8484_479" result="shape"/>
</filter>
</defs>
</svg>
