<svg width="416" height="416" viewBox="0 0 416 416" fill="none" xmlns="http://www.w3.org/2000/svg">
<path d="M311.458 312.542H104.541V416H311.458V312.542Z" fill="#FFF5DC"/>
<path d="M104.541 0V103.458H311.458V0H104.541Z" fill="#FFF5DC"/>
<path d="M312.542 104.542V311.458H416V208V104.542H312.542Z" fill="#FFF5DC"/>
<path d="M0 311.458H103.458V104.542H0V311.458Z" fill="#FFF5DC"/>
<path fill-rule="evenodd" clip-rule="evenodd" d="M104.541 312.542H311.458V416H312H312.542V312.542H416V311.458H312.542V104.542H416V104V103.458H312.542V0H312H311.458V103.458H104.541V0H104L103.458 103.458H0V104.542H103.458V311.458H0V312.542H103.458L103.459 416H104H104.541V312.542ZM104.541 311.458H311.458V104.542H104.541V311.458Z" fill="black"/>
<path d="M311.458 311.458H104.541V104.542H311.458V311.458Z" fill="#6BE5D0"/>
<path d="M312.542 103.458H416V0H312.542V103.458Z" fill="#6BE5D0"/>
<path d="M0 103.458H103.458V0H0V103.458Z" fill="#6BE5D0"/>
<path d="M103.459 416L103.458 312.542H0V416H103.459Z" fill="#6BE5D0"/>
<path d="M416 312.542H312.542V416H416V312.542Z" fill="#6BE5D0"/>
<path d="M103.458 0V103.458L104 0H103.458Z" fill="black"/>
</svg>
