<svg width="260" height="260" viewBox="0 0 260 260" fill="none" xmlns="http://www.w3.org/2000/svg">
<rect width="260" height="260" fill="#FFF5DC"/>
<path d="M58.6197 151.664L75.5906 156.324C74.8068 150.923 74.2805 145.597 76.1381 140.947C79.8158 131.734 92.1909 127.015 97.8819 118.769C103.482 110.656 103.471 97.3899 110.917 90.5768C118.128 83.9785 131.303 85.1168 140.151 80.0809L129.295 61C93.2593 81.5036 68.901 114.629 58.6197 151.658V151.664Z" fill="#6BE5D0" stroke="black" stroke-width="3.2213" stroke-miterlimit="10"/>
<path d="M75.5909 156.33L200.862 190.738L203.831 190.706C203.884 190.695 203.911 190.636 203.885 190.588L140.151 80.0866C131.298 85.1226 118.123 83.9899 110.918 90.5828C103.471 97.3959 103.482 110.662 97.8822 118.774C92.1912 127.021 79.8161 131.74 76.1384 140.953C74.2862 145.603 74.8071 150.929 75.5909 156.33Z" fill="#FFF5DC" stroke="black" stroke-width="3.2213" stroke-miterlimit="10"/>
<path d="M158.861 167.91C163.113 167.91 166.56 164.463 166.56 160.211C166.56 155.959 163.113 152.512 158.861 152.512C154.609 152.512 151.162 155.959 151.162 160.211C151.162 164.463 154.609 167.91 158.861 167.91Z" fill="#F765B8" stroke="black" stroke-width="3.2213" stroke-miterlimit="10"/>
<path d="M129.623 123.289C137.557 123.289 143.99 116.857 143.99 108.922C143.99 100.987 137.557 94.5552 129.623 94.5552C121.688 94.5552 115.256 100.987 115.256 108.922C115.256 116.857 121.688 123.289 129.623 123.289Z" fill="#F765B8" stroke="black" stroke-width="3.2213" stroke-miterlimit="10"/>
<path d="M122.595 156.774C129.569 156.774 135.222 151.121 135.222 144.147C135.222 137.173 129.569 131.519 122.595 131.519C115.621 131.519 109.967 137.173 109.967 144.147C109.967 151.121 115.621 156.774 122.595 156.774Z" fill="#F765B8" stroke="black" stroke-width="3.2213" stroke-miterlimit="10"/>
<path d="M73.6635 163.099L200.91 198.05L203.53 191.468L75.0593 156.178C74.8499 157.714 74.442 159.92 73.6635 163.093V163.099Z" fill="#FFF5DC" stroke="black" stroke-width="3.2213" stroke-miterlimit="10"/>
<path d="M55.9998 158.246L73.47 163.046L74.619 156.056L58.6198 151.664L55.9998 158.246Z" fill="#6BE5D0" stroke="black" stroke-width="3.2213" stroke-miterlimit="10"/>
</svg>
