<svg width="1920" height="18" viewBox="0 0 1920 18" fill="none" xmlns="http://www.w3.org/2000/svg">
<path d="M9.11426 0.703523L17.5168 8.99871L9.11426 17.2939L0.711721 8.99871L9.11426 0.703523Z" fill="#F765B8" stroke="black" stroke-miterlimit="10"/>
<path d="M230 0.703523L238.403 8.99871L230 17.2939L221.597 8.99871L230 0.703523Z" fill="#F765B8" stroke="black" stroke-miterlimit="10"/>
<path d="M451 0.703523L459.402 8.99871L451 17.2939L442.597 8.99871L451 0.703523Z" fill="#F765B8" stroke="black" stroke-miterlimit="10"/>
<path d="M672 0.703523L680.403 8.99871L672 17.2939L663.597 8.99871L672 0.703523Z" fill="#F765B8" stroke="black" stroke-miterlimit="10"/>
<path d="M893 0.703523L901.403 8.99871L893 17.2939L884.597 8.99871L893 0.703523Z" fill="#F765B8" stroke="black" stroke-miterlimit="10"/>
<path d="M1114 0.703523L1122.4 8.99871L1114 17.2939L1105.6 8.99871L1114 0.703523Z" fill="#F765B8" stroke="black" stroke-miterlimit="10"/>
<path d="M1335 0.703523L1343.4 8.99871L1335 17.2939L1326.6 8.99871L1335 0.703523Z" fill="#F765B8" stroke="black" stroke-miterlimit="10"/>
<path d="M26 0.703523L34.4025 8.99871L26 17.2939L17.5975 8.99871L26 0.703523Z" fill="#F765B8" stroke="black" stroke-miterlimit="10"/>
<path d="M247 0.703523L255.403 8.99871L247 17.2939L238.597 8.99871L247 0.703523Z" fill="#F765B8" stroke="black" stroke-miterlimit="10"/>
<path d="M468 0.703523L476.402 8.99871L468 17.2939L459.597 8.99871L468 0.703523Z" fill="#F765B8" stroke="black" stroke-miterlimit="10"/>
<path d="M689 0.703523L697.403 8.99871L689 17.2939L680.597 8.99871L689 0.703523Z" fill="#F765B8" stroke="black" stroke-miterlimit="10"/>
<path d="M910 0.703523L918.403 8.99871L910 17.2939L901.597 8.99871L910 0.703523Z" fill="#F765B8" stroke="black" stroke-miterlimit="10"/>
<path d="M1131 0.703523L1139.4 8.99871L1131 17.2939L1122.6 8.99871L1131 0.703523Z" fill="#F765B8" stroke="black" stroke-miterlimit="10"/>
<path d="M1352 0.703523L1360.4 8.99871L1352 17.2939L1343.6 8.99871L1352 0.703523Z" fill="#F765B8" stroke="black" stroke-miterlimit="10"/>
<path d="M43 0.704011L51.4025 8.9992L43 17.2944L34.5975 8.9992L43 0.704011Z" fill="#F765B8" stroke="black" stroke-miterlimit="10"/>
<path d="M264 0.704011L272.403 8.9992L264 17.2944L255.597 8.9992L264 0.704011Z" fill="#F765B8" stroke="black" stroke-miterlimit="10"/>
<path d="M485 0.704011L493.402 8.9992L485 17.2944L476.597 8.9992L485 0.704011Z" fill="#F765B8" stroke="black" stroke-miterlimit="10"/>
<path d="M706 0.704011L714.403 8.9992L706 17.2944L697.597 8.9992L706 0.704011Z" fill="#F765B8" stroke="black" stroke-miterlimit="10"/>
<path d="M927 0.704011L935.403 8.9992L927 17.2944L918.597 8.9992L927 0.704011Z" fill="#F765B8" stroke="black" stroke-miterlimit="10"/>
<path d="M1148 0.704011L1156.4 8.9992L1148 17.2944L1139.6 8.9992L1148 0.704011Z" fill="#F765B8" stroke="black" stroke-miterlimit="10"/>
<path d="M1369 0.704011L1377.4 8.9992L1369 17.2944L1360.6 8.9992L1369 0.704011Z" fill="#F765B8" stroke="black" stroke-miterlimit="10"/>
<path d="M60 0.704011L68.4025 8.9992L60 17.2944L51.5975 8.9992L60 0.704011Z" fill="#F765B8" stroke="black" stroke-miterlimit="10"/>
<path d="M281 0.704011L289.403 8.9992L281 17.2944L272.597 8.9992L281 0.704011Z" fill="#F765B8" stroke="black" stroke-miterlimit="10"/>
<path d="M502 0.704011L510.402 8.9992L502 17.2944L493.597 8.9992L502 0.704011Z" fill="#F765B8" stroke="black" stroke-miterlimit="10"/>
<path d="M723 0.704011L731.403 8.9992L723 17.2944L714.597 8.9992L723 0.704011Z" fill="#F765B8" stroke="black" stroke-miterlimit="10"/>
<path d="M944 0.704011L952.403 8.9992L944 17.2944L935.597 8.9992L944 0.704011Z" fill="#F765B8" stroke="black" stroke-miterlimit="10"/>
<path d="M1165 0.704011L1173.4 8.9992L1165 17.2944L1156.6 8.9992L1165 0.704011Z" fill="#F765B8" stroke="black" stroke-miterlimit="10"/>
<path d="M1386 0.704011L1394.4 8.9992L1386 17.2944L1377.6 8.9992L1386 0.704011Z" fill="#F765B8" stroke="black" stroke-miterlimit="10"/>
<path d="M77 0.704011L85.4025 8.9992L77 17.2944L68.5975 8.9992L77 0.704011Z" fill="#F765B8" stroke="black" stroke-miterlimit="10"/>
<path d="M298 0.704011L306.403 8.9992L298 17.2944L289.597 8.9992L298 0.704011Z" fill="#F765B8" stroke="black" stroke-miterlimit="10"/>
<path d="M519 0.704011L527.403 8.9992L519 17.2944L510.597 8.9992L519 0.704011Z" fill="#F765B8" stroke="black" stroke-miterlimit="10"/>
<path d="M740 0.704011L748.403 8.9992L740 17.2944L731.597 8.9992L740 0.704011Z" fill="#F765B8" stroke="black" stroke-miterlimit="10"/>
<path d="M961 0.704011L969.403 8.9992L961 17.2944L952.597 8.9992L961 0.704011Z" fill="#F765B8" stroke="black" stroke-miterlimit="10"/>
<path d="M1182 0.704011L1190.4 8.9992L1182 17.2944L1173.6 8.9992L1182 0.704011Z" fill="#F765B8" stroke="black" stroke-miterlimit="10"/>
<path d="M1403 0.704011L1411.4 8.9992L1403 17.2944L1394.6 8.9992L1403 0.704011Z" fill="#F765B8" stroke="black" stroke-miterlimit="10"/>
<path d="M94 0.702546L102.403 8.99774L94 17.2929L85.5975 8.99774L94 0.702546Z" fill="#F765B8" stroke="black" stroke-miterlimit="10"/>
<path d="M315 0.702546L323.403 8.99774L315 17.2929L306.597 8.99774L315 0.702546Z" fill="#F765B8" stroke="black" stroke-miterlimit="10"/>
<path d="M536 0.702546L544.403 8.99774L536 17.2929L527.597 8.99774L536 0.702546Z" fill="#F765B8" stroke="black" stroke-miterlimit="10"/>
<path d="M757 0.702546L765.403 8.99774L757 17.2929L748.597 8.99774L757 0.702546Z" fill="#F765B8" stroke="black" stroke-miterlimit="10"/>
<path d="M978 0.702546L986.403 8.99774L978 17.2929L969.597 8.99774L978 0.702546Z" fill="#F765B8" stroke="black" stroke-miterlimit="10"/>
<path d="M1199 0.702546L1207.4 8.99774L1199 17.2929L1190.6 8.99774L1199 0.702546Z" fill="#F765B8" stroke="black" stroke-miterlimit="10"/>
<path d="M1420 0.702546L1428.4 8.99774L1420 17.2929L1411.6 8.99774L1420 0.702546Z" fill="#F765B8" stroke="black" stroke-miterlimit="10"/>
<path d="M111 0.702546L119.403 8.99774L111 17.2929L102.597 8.99774L111 0.702546Z" fill="#F765B8" stroke="black" stroke-miterlimit="10"/>
<path d="M332 0.702546L340.403 8.99774L332 17.2929L323.597 8.99774L332 0.702546Z" fill="#F765B8" stroke="black" stroke-miterlimit="10"/>
<path d="M553 0.702546L561.403 8.99774L553 17.2929L544.597 8.99774L553 0.702546Z" fill="#F765B8" stroke="black" stroke-miterlimit="10"/>
<path d="M774 0.702546L782.403 8.99774L774 17.2929L765.597 8.99774L774 0.702546Z" fill="#F765B8" stroke="black" stroke-miterlimit="10"/>
<path d="M995 0.702546L1003.4 8.99774L995 17.2929L986.597 8.99774L995 0.702546Z" fill="#F765B8" stroke="black" stroke-miterlimit="10"/>
<path d="M1216 0.702546L1224.4 8.99774L1216 17.2929L1207.6 8.99774L1216 0.702546Z" fill="#F765B8" stroke="black" stroke-miterlimit="10"/>
<path d="M1437 0.702546L1445.4 8.99774L1437 17.2929L1428.6 8.99774L1437 0.702546Z" fill="#F765B8" stroke="black" stroke-miterlimit="10"/>
<path d="M128 0.702546L136.403 8.99774L128 17.2929L119.597 8.99774L128 0.702546Z" fill="#F765B8" stroke="black" stroke-miterlimit="10"/>
<path d="M349 0.702546L357.403 8.99774L349 17.2929L340.597 8.99774L349 0.702546Z" fill="#F765B8" stroke="black" stroke-miterlimit="10"/>
<path d="M570 0.702546L578.403 8.99774L570 17.2929L561.597 8.99774L570 0.702546Z" fill="#F765B8" stroke="black" stroke-miterlimit="10"/>
<path d="M791 0.702546L799.403 8.99774L791 17.2929L782.597 8.99774L791 0.702546Z" fill="#F765B8" stroke="black" stroke-miterlimit="10"/>
<path d="M1012 0.702546L1020.4 8.99774L1012 17.2929L1003.6 8.99774L1012 0.702546Z" fill="#F765B8" stroke="black" stroke-miterlimit="10"/>
<path d="M1233 0.702546L1241.4 8.99774L1233 17.2929L1224.6 8.99774L1233 0.702546Z" fill="#F765B8" stroke="black" stroke-miterlimit="10"/>
<path d="M145 0.706941L153.403 9.00213L145 17.2973L136.597 9.00213L145 0.706941Z" fill="#F765B8" stroke="black" stroke-miterlimit="10"/>
<path d="M366 0.706941L374.403 9.00213L366 17.2973L357.597 9.00213L366 0.706941Z" fill="#F765B8" stroke="black" stroke-miterlimit="10"/>
<path d="M587 0.706941L595.403 9.00213L587 17.2973L578.597 9.00213L587 0.706941Z" fill="#F765B8" stroke="black" stroke-miterlimit="10"/>
<path d="M808 0.706941L816.403 9.00213L808 17.2973L799.597 9.00213L808 0.706941Z" fill="#F765B8" stroke="black" stroke-miterlimit="10"/>
<path d="M1029 0.706941L1037.4 9.00213L1029 17.2973L1020.6 9.00213L1029 0.706941Z" fill="#F765B8" stroke="black" stroke-miterlimit="10"/>
<path d="M1250 0.706941L1258.4 9.00213L1250 17.2973L1241.6 9.00213L1250 0.706941Z" fill="#F765B8" stroke="black" stroke-miterlimit="10"/>
<path d="M162 0.706941L170.403 9.00213L162 17.2973L153.597 9.00213L162 0.706941Z" fill="#F765B8" stroke="black" stroke-miterlimit="10"/>
<path d="M383 0.706941L391.403 9.00213L383 17.2973L374.597 9.00213L383 0.706941Z" fill="#F765B8" stroke="black" stroke-miterlimit="10"/>
<path d="M604 0.706941L612.403 9.00213L604 17.2973L595.597 9.00213L604 0.706941Z" fill="#F765B8" stroke="black" stroke-miterlimit="10"/>
<path d="M825 0.706941L833.403 9.00213L825 17.2973L816.597 9.00213L825 0.706941Z" fill="#F765B8" stroke="black" stroke-miterlimit="10"/>
<path d="M1046 0.706941L1054.4 9.00213L1046 17.2973L1037.6 9.00213L1046 0.706941Z" fill="#F765B8" stroke="black" stroke-miterlimit="10"/>
<path d="M1267 0.706941L1275.4 9.00213L1267 17.2973L1258.6 9.00213L1267 0.706941Z" fill="#F765B8" stroke="black" stroke-miterlimit="10"/>
<path d="M179 0.703523L187.403 8.99871L179 17.2939L170.597 8.99871L179 0.703523Z" fill="#F765B8" stroke="black" stroke-miterlimit="10"/>
<path d="M400 0.703523L408.402 8.99871L400 17.2939L391.597 8.99871L400 0.703523Z" fill="#F765B8" stroke="black" stroke-miterlimit="10"/>
<path d="M621 0.703523L629.403 8.99871L621 17.2939L612.597 8.99871L621 0.703523Z" fill="#F765B8" stroke="black" stroke-miterlimit="10"/>
<path d="M842 0.703523L850.403 8.99871L842 17.2939L833.597 8.99871L842 0.703523Z" fill="#F765B8" stroke="black" stroke-miterlimit="10"/>
<path d="M1063 0.703523L1071.4 8.99871L1063 17.2939L1054.6 8.99871L1063 0.703523Z" fill="#F765B8" stroke="black" stroke-miterlimit="10"/>
<path d="M1284 0.703523L1292.4 8.99871L1284 17.2939L1275.6 8.99871L1284 0.703523Z" fill="#F765B8" stroke="black" stroke-miterlimit="10"/>
<path d="M196 0.704988L204.403 9.00018L196 17.2954L187.597 9.00018L196 0.704988Z" fill="#F765B8" stroke="black" stroke-miterlimit="10"/>
<path d="M417 0.704988L425.402 9.00018L417 17.2954L408.597 9.00018L417 0.704988Z" fill="#F765B8" stroke="black" stroke-miterlimit="10"/>
<path d="M638 0.704988L646.403 9.00018L638 17.2954L629.597 9.00018L638 0.704988Z" fill="#F765B8" stroke="black" stroke-miterlimit="10"/>
<path d="M859 0.704988L867.403 9.00018L859 17.2954L850.597 9.00018L859 0.704988Z" fill="#F765B8" stroke="black" stroke-miterlimit="10"/>
<path d="M1080 0.704988L1088.4 9.00018L1080 17.2954L1071.6 9.00018L1080 0.704988Z" fill="#F765B8" stroke="black" stroke-miterlimit="10"/>
<path d="M1301 0.704988L1309.4 9.00018L1301 17.2954L1292.6 9.00018L1301 0.704988Z" fill="#F765B8" stroke="black" stroke-miterlimit="10"/>
<path d="M213 0.705232L221.403 9.00042L213 17.2956L204.597 9.00042L213 0.705232Z" fill="#F765B8" stroke="black" stroke-miterlimit="10"/>
<path d="M434 0.705232L442.402 9.00042L434 17.2956L425.597 9.00042L434 0.705232Z" fill="#F765B8" stroke="black" stroke-miterlimit="10"/>
<path d="M655 0.705232L663.403 9.00042L655 17.2956L646.597 9.00042L655 0.705232Z" fill="#F765B8" stroke="black" stroke-miterlimit="10"/>
<path d="M876 0.705232L884.403 9.00042L876 17.2956L867.597 9.00042L876 0.705232Z" fill="#F765B8" stroke="black" stroke-miterlimit="10"/>
<path d="M1097 0.705232L1105.4 9.00042L1097 17.2956L1088.6 9.00042L1097 0.705232Z" fill="#F765B8" stroke="black" stroke-miterlimit="10"/>
<path d="M1318 0.705232L1326.4 9.00042L1318 17.2956L1309.6 9.00042L1318 0.705232Z" fill="#F765B8" stroke="black" stroke-miterlimit="10"/>
<path d="M1573 0.703523L1581.4 8.99871L1573 17.2939L1564.6 8.99871L1573 0.703523Z" fill="#F765B8" stroke="black" stroke-miterlimit="10"/>
<path d="M1794 0.703523L1802.4 8.99871L1794 17.2939L1785.6 8.99871L1794 0.703523Z" fill="#F765B8" stroke="black" stroke-miterlimit="10"/>
<path d="M1590 0.703523L1598.4 8.99871L1590 17.2939L1581.6 8.99871L1590 0.703523Z" fill="#F765B8" stroke="black" stroke-miterlimit="10"/>
<path d="M1811 0.703523L1819.4 8.99871L1811 17.2939L1802.6 8.99871L1811 0.703523Z" fill="#F765B8" stroke="black" stroke-miterlimit="10"/>
<path d="M1607 0.704011L1615.4 8.9992L1607 17.2944L1598.6 8.9992L1607 0.704011Z" fill="#F765B8" stroke="black" stroke-miterlimit="10"/>
<path d="M1828 0.704011L1836.4 8.9992L1828 17.2944L1819.6 8.9992L1828 0.704011Z" fill="#F765B8" stroke="black" stroke-miterlimit="10"/>
<path d="M1624 0.704011L1632.4 8.9992L1624 17.2944L1615.6 8.9992L1624 0.704011Z" fill="#F765B8" stroke="black" stroke-miterlimit="10"/>
<path d="M1845 0.704011L1853.4 8.9992L1845 17.2944L1836.6 8.9992L1845 0.704011Z" fill="#F765B8" stroke="black" stroke-miterlimit="10"/>
<path d="M1641 0.704011L1649.4 8.9992L1641 17.2944L1632.6 8.9992L1641 0.704011Z" fill="#F765B8" stroke="black" stroke-miterlimit="10"/>
<path d="M1862 0.704011L1870.4 8.9992L1862 17.2944L1853.6 8.9992L1862 0.704011Z" fill="#F765B8" stroke="black" stroke-miterlimit="10"/>
<path d="M1658 0.702546L1666.4 8.99774L1658 17.2929L1649.6 8.99774L1658 0.702546Z" fill="#F765B8" stroke="black" stroke-miterlimit="10"/>
<path d="M1879 0.702546L1887.4 8.99774L1879 17.2929L1870.6 8.99774L1879 0.702546Z" fill="#F765B8" stroke="black" stroke-miterlimit="10"/>
<path d="M1454 0.702546L1462.4 8.99774L1454 17.2929L1445.6 8.99774L1454 0.702546Z" fill="#F765B8" stroke="black" stroke-miterlimit="10"/>
<path d="M1675 0.702546L1683.4 8.99774L1675 17.2929L1666.6 8.99774L1675 0.702546Z" fill="#F765B8" stroke="black" stroke-miterlimit="10"/>
<path d="M1896 0.702546L1904.4 8.99774L1896 17.2929L1887.6 8.99774L1896 0.702546Z" fill="#F765B8" stroke="black" stroke-miterlimit="10"/>
<path d="M1913.11 0.702546L1921.52 8.99774L1913.11 17.2929L1904.71 8.99774L1913.11 0.702546Z" fill="#F765B8" stroke="black" stroke-miterlimit="10"/>
<path d="M1471 0.702546L1479.4 8.99774L1471 17.2929L1462.6 8.99774L1471 0.702546Z" fill="#F765B8" stroke="black" stroke-miterlimit="10"/>
<path d="M1692 0.702546L1700.4 8.99774L1692 17.2929L1683.6 8.99774L1692 0.702546Z" fill="#F765B8" stroke="black" stroke-miterlimit="10"/>
<path d="M1488 0.706941L1496.4 9.00213L1488 17.2973L1479.6 9.00213L1488 0.706941Z" fill="#F765B8" stroke="black" stroke-miterlimit="10"/>
<path d="M1709 0.706941L1717.4 9.00213L1709 17.2973L1700.6 9.00213L1709 0.706941Z" fill="#F765B8" stroke="black" stroke-miterlimit="10"/>
<path d="M1505 0.706941L1513.4 9.00213L1505 17.2973L1496.6 9.00213L1505 0.706941Z" fill="#F765B8" stroke="black" stroke-miterlimit="10"/>
<path d="M1726 0.706941L1734.4 9.00213L1726 17.2973L1717.6 9.00213L1726 0.706941Z" fill="#F765B8" stroke="black" stroke-miterlimit="10"/>
<path d="M1522 0.703523L1530.4 8.99871L1522 17.2939L1513.6 8.99871L1522 0.703523Z" fill="#F765B8" stroke="black" stroke-miterlimit="10"/>
<path d="M1743 0.703523L1751.4 8.99871L1743 17.2939L1734.6 8.99871L1743 0.703523Z" fill="#F765B8" stroke="black" stroke-miterlimit="10"/>
<path d="M1539 0.704988L1547.4 9.00018L1539 17.2954L1530.6 9.00018L1539 0.704988Z" fill="#F765B8" stroke="black" stroke-miterlimit="10"/>
<path d="M1760 0.704988L1768.4 9.00018L1760 17.2954L1751.6 9.00018L1760 0.704988Z" fill="#F765B8" stroke="black" stroke-miterlimit="10"/>
<path d="M1556 0.705232L1564.4 9.00042L1556 17.2956L1547.6 9.00042L1556 0.705232Z" fill="#F765B8" stroke="black" stroke-miterlimit="10"/>
<path d="M1777 0.705232L1785.4 9.00042L1777 17.2956L1768.6 9.00042L1777 0.705232Z" fill="#F765B8" stroke="black" stroke-miterlimit="10"/>
</svg>
