<svg viewBox="0 0 882 145" fill="none" xmlns="http://www.w3.org/2000/svg"><path d="M31.8239 137.744c-6.4 0-11.9466-1.323-16.64-3.968-4.7786-2.645-8.44796-6.144-11.00796-10.496-2.56-4.267-3.840002-8.789-3.840002-13.568 0-5.547 1.450662-10.4106 4.352002-14.5919 2.90133-4.2667 6.74136-7.8507 11.51996-10.752 4.7787-2.9867 9.984-5.2054 15.616-6.656 5.7174-1.536 11.3494-2.304 16.896-2.304 2.9867 0 6.3574.384 10.112 1.152 3.7547.6826 7.2534 1.8346 10.496 3.456 3.328 1.6213 5.76 3.7973 7.296 6.528.256.3413.256 1.024 0 2.048-.256.9386-.6826 1.8346-1.28 2.688-.5973.768-1.408 1.152-2.432 1.152-.9386 0-2.0053-.512-3.2-1.536-2.304-2.048-4.7786-3.456-7.424-4.224-2.56-.768-5.3333-1.152-8.32-1.152-4.608 0-9.216.512-13.824 1.536-4.608 1.024-8.8746 2.56-12.8 4.608-3.84 2.048-6.912 4.608-9.216 7.68-2.304 2.9869-3.456 6.4849-3.456 10.4959 0 2.901.768 5.632 2.304 8.192 1.536 2.56 3.712 4.608 6.528 6.144 2.816 1.536 6.1867 2.304 10.112 2.304 5.2054 0 11.2214-1.749 18.048-5.248 6.8267-3.413 14.1654-9.344 22.016-17.792 10.9227-11.6906 20.992-24.1493 30.2081-37.3759 9.216-13.312 18.176-26.6667 26.88-40.064-2.645-1.4507-5.931-2.7307-9.856-3.84-3.925-1.1947-7.765-1.792-11.52-1.792-6.059 0-10.7521 1.792-14.0801 5.376-3.2426 3.584-4.864 8.4053-4.864 14.464 0 1.6213-.4266 2.8586-1.28 3.712-.768.8533-1.7066 1.28-2.816 1.28-1.1946 0-2.3466-.64-3.456-1.92-1.024-1.28-1.536-3.3707-1.536-6.272 0-4.096.7254-7.808 2.176-11.136 1.4507-3.328 3.0294-6.016 4.736-8.064 2.7307-3.1574 6.3574-5.4187 10.88-6.784 4.5231-1.36536 9.3441-2.04803 14.4641-2.04803 4.779 0 9.515.512 14.208 1.53603 4.693.9386 8.96 2.304 12.8 4.096 3.925 1.7066 7.04 3.6693 9.344 5.888 2.389 2.2186 3.584 4.608 3.584 7.168 0 .3413-.043.6826-.128 1.024 0 .256-.043.5546-.128.896-.427 1.6213-1.109 2.7733-2.048 3.456-.939.5973-2.005.896-3.2.896-1.365 0-2.773-.2987-4.224-.896-1.451-.6827-2.731-1.4507-3.84-2.304-.341-.256-.512-.5547-.512-.896 0-.512.213-.9387.64-1.28.512-.3414.981-.2987 1.408.128.768.5973 1.749 1.2373 2.944 1.92 1.195.5973 2.347.896 3.456.896.683 0 1.28-.1707 1.792-.512.512-.4267.896-1.1094 1.152-2.048.085-.1707.128-.384.128-.64v-.64c0-2.048-1.109-4.0107-3.328-5.888-2.219-1.9627-5.205-3.712-8.96-5.248-3.669-1.6214-7.723-2.8587-12.16-3.712-4.437-.9387-8.875-1.408-13.312-1.408-4.693 0-9.088.64-13.184 1.92-4.0107 1.1946-7.2534 3.2-9.7281 6.016-1.6213 1.8773-3.1146 4.352-4.48 7.424-1.28 3.072-1.92 6.4853-1.92 10.24 0 1.9626.256 3.4133.768 4.352.512.9386 1.0667 1.408 1.664 1.408 1.024 0 1.536-.8534 1.536-2.56 0-6.656 1.8774-12.032 5.632-16.128 3.7547-4.1814 9.0451-6.272 15.8721-6.272 4.352 0 8.704.6826 13.056 2.048 4.437 1.3653 8.021 2.8586 10.752 4.48.768.4266.896 1.0666.384 1.92-.683 1.024-1.963 3.0293-3.84 6.016-1.877 2.9013-4.267 6.528-7.168 10.88-2.816 4.2666-6.016 9.0026-9.6 14.208-3.499 5.12-7.339 10.496-11.52 16.128-4.0961 5.5466-8.3627 11.0506-12.8001 16.512-4.352 5.376-8.7466 10.4529-13.184 15.2319-8.1066 8.789-15.744 14.933-22.912 18.432-7.168 3.584-13.5253 5.376-19.072 5.376-4.352 0-8.1493-.896-11.392-2.688-3.1573-1.792-5.5893-4.181-7.296-7.168-1.792-2.901-2.688-6.016-2.688-9.344 0-4.523 1.2374-8.448 3.712-11.7759 2.4747-3.328 5.76-6.1014 9.856-8.32 4.1814-2.2187 8.7467-3.8827 13.696-4.992 4.9494-1.1094 9.856-1.664 14.72-1.664 3.2427 0 6.3147.4266 9.216 1.28 2.9014.768 5.632 2.304 8.192 4.608.512.512.8534.8106 1.024.896.3414 0 .6827-.256 1.024-.768.3414-.512.5547-.9387.64-1.28l.128-.128c-1.1093-1.8774-2.7306-3.4134-4.864-4.608-2.048-1.28-4.3093-2.2614-6.784-2.944-2.4746-.768-4.9066-1.28-7.296-1.536-2.304-.3414-4.3093-.512-6.016-.512-5.2053 0-10.5386.6826-16 2.048-5.376 1.3653-10.368 3.4133-14.976 6.144-4.608 2.6453-8.32 5.9306-11.13596 9.856-2.90134 3.9249-4.352 8.4909-4.352 13.6959 0 4.352 1.19466 8.448 3.584 12.288 2.304 3.84 5.63196 6.955 9.98396 9.344 4.352 2.389 9.472 3.584 15.36 3.584 6.5707 0 13.952-1.835 22.144-5.504 8.192-3.669 16.9387-9.899 26.24-18.688 6.7414-6.4 13.3974-13.6959 19.9681-21.8879 6.571-8.2774 12.928-17.0667 19.072-26.368 6.144-9.3014 11.904-18.6454 17.28-28.032.256-.4267.64-.64 1.152-.64.427 0 .811.2133 1.152.64.341.3413.341.768 0 1.28-5.376 9.3866-11.179 18.7733-17.408 28.16-6.144 9.3013-12.544 18.1333-19.2 26.496-6.6561 8.2773-13.3974 15.6589-20.2241 22.1439-9.5573 9.045-18.6026 15.488-27.136 19.328-8.5333 3.84-16.2133 5.76-23.04 5.76ZM136.607 99.2161c-.597 0-1.237-.384-1.92-1.152-.597-.8534-.896-2.1334-.896-3.84 0-1.792.384-3.7547 1.152-5.888.768-2.2187 1.707-4.3947 2.816-6.528 1.195-2.2187 2.304-4.1387 3.328-5.76 1.109-1.7067 1.963-2.944 2.56-3.712 1.28-1.6214 2.389-3.0294 3.328-4.224.939-1.1947 1.493-1.92 1.664-2.176.853-1.1947 1.28-2.304 1.28-3.328 0-1.28-.597-2.2614-1.792-2.944-1.109-.768-2.347-1.152-3.712-1.152-1.451 0-2.56.3413-3.328 1.024-1.195 1.1093-2.475 2.432-3.84 3.968-1.28 1.4506-2.645 3.1573-4.096 5.12-1.536 1.9626-3.157 4.0533-4.864 6.272-1.707 2.2186-3.669 4.608-5.888 7.168-.256.3413-.597.512-1.024.512-.427 0-.768-.2134-1.024-.64-.341-.512-.341-.9814 0-1.408 2.219-2.4747 4.181-4.864 5.888-7.168 1.792-2.304 3.413-4.3947 4.864-6.272 1.536-1.9627 2.944-3.712 4.224-5.248 1.365-1.6214 2.731-3.0294 4.096-4.224 1.195-1.1094 2.816-1.664 4.864-1.664s3.925.64 5.632 1.92c1.792 1.1946 2.688 2.7733 2.688 4.736 0 .768-.256 1.7066-.768 2.816-.512 1.024-1.707 2.7733-3.584 5.248-4.608 6.0586-7.723 10.8373-9.344 14.336-1.621 3.4986-2.432 6.6133-2.432 9.344 0 1.28.256 2.1333.768 2.56.341.256.512.5973.512 1.024 0 .8533-.384 1.28-1.152 1.28Zm5.12-2.816c-.853 0-1.28-.4267-1.28-1.28 0-.512.256-.896.768-1.152 4.096-2.2187 7.595-5.248 10.496-9.088 2.901-3.84 5.461-7.9787 7.68-12.416 2.219-4.4374 4.352-8.576 6.4-12.416.512-1.024 1.237-1.7494 2.176-2.176 1.024-.512 2.091-.768 3.2-.768 1.963 0 3.797.64 5.504 1.92 1.792 1.28 2.688 2.9013 2.688 4.864 0 1.4506-.555 2.9013-1.664 4.352-.256.3413-.597.512-1.024.512-.427 0-.811-.2134-1.152-.64-.256-.4267-.213-.896.128-1.408.768-1.024 1.152-2.0054 1.152-2.944 0-1.28-.597-2.2614-1.792-2.944-1.195-.6827-2.389-1.024-3.584-1.024-.683 0-1.365.128-2.048.384-.597.256-1.024.64-1.28 1.152-2.133 4.0106-4.352 8.32-6.656 12.928-2.304 4.5226-4.992 8.7466-8.064 12.672-2.987 3.9253-6.656 7.04-11.008 9.344-.171.0853-.384.128-.64.128Zm-7.68 10.1119c-3.072-.085-5.547-1.152-7.424-3.2-1.792-2.048-2.688-4.8213-2.688-8.3199v-1.792c.085-.5974.171-1.1947.256-1.792.256-1.28.981-3.2854 2.176-6.016 1.195-2.7307 2.731-5.632 4.608-8.704 1.963-3.1574 4.011-5.888 6.144-8.192.256-.3414.555-.512.896-.512.512 0 .896.256 1.152.768.256.512.171.9813-.256 1.408-2.048 2.304-3.968 4.9493-5.76 7.936-1.792 2.9013-3.285 5.632-4.48 8.192-1.109 2.56-1.749 4.3946-1.92 5.504-.085.5973-.171 1.1946-.256 1.792v1.536c0 2.9866.768 5.2049 2.304 6.6559 1.536 1.451 3.413 2.176 5.632 2.176 2.731 0 5.888-1.152 9.472-3.456 3.584-2.3039 7.083-6.0159 10.496-11.1359.256-.4267.597-.64 1.024-.64.427 0 .811.2133 1.152.64.341.4266.299.9386-.128 1.536-3.584 5.2906-7.381 9.2159-11.392 11.7759-3.925 2.56-7.595 3.84-11.008 3.84Zm30.848-7.2959c-.512 0-.896-.0427-1.152-.128-1.195-.4267-2.048-1.0667-2.56-1.92-.427-.8534-.64-1.8347-.64-2.944 0-1.4507.299-2.944.896-4.48.597-1.6214 1.237-3.1574 1.92-4.608.768-1.4507 1.365-2.56 1.792-3.328.939-1.792 1.877-3.584 2.816-5.376 1.024-1.792 1.963-3.2427 2.816-4.352.256-.3414.597-.512 1.024-.512.427 0 .811.2133 1.152.64.341.4266.299.896-.128 1.408-1.877 2.4746-3.541 5.2053-4.992 8.192-1.451 2.9013-2.816 5.76-4.096 8.576-.512 1.1093-.768 2.2613-.768 3.456 0 1.792.683 2.688 2.048 2.688.683 0 1.664-.384 2.944-1.152 2.901-1.8774 5.504-4.1814 7.808-6.912 2.304-2.7307 4.523-5.376 6.656-7.936.256-.3414.555-.512.896-.512.512 0 .896.256 1.152.768.341.4266.299.896-.128 1.408-.597.768-1.664 2.048-3.2 3.84-1.451 1.792-3.157 3.712-5.12 5.76-1.963 2.048-3.925 3.7973-5.888 5.248-1.963 1.4506-3.712 2.176-5.248 2.176Zm-3.84 7.4239c-1.621 0-3.371-.256-5.248-.768-1.877-.597-3.371-1.707-4.48-3.328-.171-.341-.256-.597-.256-.768 0-.853.427-1.28 1.28-1.28.427 0 .768.171 1.024.512.768 1.109 1.877 1.92 3.328 2.432 1.451.427 2.901.64 4.352.64 2.219 0 4.693-.469 7.424-1.408 2.816-.939 5.632-2.475 8.448-4.6079.171-.1707.427-.256.768-.256.853 0 1.28.4266 1.28 1.28 0 .4266-.171.768-.512 1.0239-2.987 2.304-6.016 3.968-9.088 4.992-2.987 1.024-5.76 1.536-8.32 1.536Z" fill="#F765B8"/><path d="M183.5 82.7041c-.427 0-.768-.256-1.024-.768-.341-.512-.341-.9814 0-1.408 1.707-1.9627 3.285-4.0107 4.736-6.144 1.451-2.1334 2.859-4.2667 4.224-6.4 2.304-3.4134 4.821-7.0827 7.552-11.008 2.816-3.9254 5.803-7.808 8.96-11.648 3.243-3.84 6.571-7.3387 9.984-10.496 3.413-3.2427 6.869-5.8454 10.368-7.808 2.987-1.6214 5.589-2.432 7.808-2.432 2.219 0 3.883.7253 4.992 2.176 1.195 1.3653 1.792 3.1573 1.792 5.376 0 1.024-.128 2.0906-.384 3.2-.171 1.024-.512 2.1333-1.024 3.328-.256.5973-1.237 1.92-2.944 3.968-1.621 1.9626-3.669 4.3946-6.144 7.296-2.475 2.816-5.12 5.76-7.936 8.832-2.731 3.072-5.376 6.016-7.936 8.832-2.56 2.816-4.779 5.1626-6.656 7.04-1.792 1.8773-2.944 3.0293-3.456 3.456-.256.256-.512.384-.768.384-.939 0-1.408-.512-1.408-1.536 0-.256.171-.5547.512-.896.512-.4267 1.664-1.5787 3.456-3.456 1.792-1.8774 3.968-4.1814 6.528-6.912 2.56-2.7307 5.205-5.5894 7.936-8.576 2.731-3.072 5.291-5.9734 7.68-8.704 2.475-2.816 4.523-5.2054 6.144-7.168 1.621-1.9627 2.517-3.1574 2.688-3.584.853-1.9627 1.28-3.84 1.28-5.632 0-1.4507-.384-2.6027-1.152-3.456-.683-.9387-1.749-1.408-3.2-1.408-1.792 0-3.968.7253-6.528 2.176-3.328 1.8773-6.656 4.3946-9.984 7.552-3.328 3.072-6.571 6.528-9.728 10.368-3.157 3.7546-6.101 7.552-8.832 11.392-2.731 3.84-5.205 7.424-7.424 10.752-1.451 2.1333-2.901 4.3093-4.352 6.528-1.451 2.2186-3.029 4.3093-4.736 6.272-.256.3413-.597.512-1.024.512Zm13.184 15.36c-2.645 0-4.523-.5547-5.632-1.664-1.024-1.1094-1.536-2.4747-1.536-4.096 0-1.7067.384-3.5414 1.152-5.504.853-2.048 1.707-3.7974 2.56-5.248 1.28-2.2187 3.029-4.864 5.248-7.936 2.219-3.072 4.651-6.272 7.296-9.6 2.731-3.4134 5.461-6.6987 8.192-9.856 2.816-3.1574 5.461-5.9307 7.936-8.32 2.475-2.4747 4.523-4.3094 6.144-5.504.171-.1707.427-.256.768-.256.853 0 1.28.4266 1.28 1.28 0 .4266-.171.768-.512 1.024-1.621 1.1093-3.627 2.8586-6.016 5.248-2.389 2.3893-4.949 5.1626-7.68 8.32-2.731 3.072-5.461 6.272-8.192 9.6-2.645 3.328-5.077 6.4853-7.296 9.472-2.133 2.9866-3.797 5.5893-4.992 7.808-.597 1.1093-1.323 2.5173-2.176 4.224-.853 1.7066-1.28 3.2853-1.28 4.736 0 1.1093.341 2.0053 1.024 2.688.683.6826 1.92 1.024 3.712 1.024 2.304 0 4.949-.5547 7.936-1.664 3.072-1.1094 6.187-2.7734 9.344-4.992 3.157-2.304 6.059-5.12 8.704-8.448.256-.3414.555-.512.896-.512.512 0 .896.256 1.152.768.341.4266.299.896-.128 1.408-2.731 3.4986-5.76 6.4426-9.088 8.832-3.328 2.3893-6.656 4.1813-9.984 5.376-3.243 1.1946-6.187 1.792-8.832 1.792ZM195.532 106c-4.267 0-7.893-.896-10.88-2.688-2.901-1.877-4.352-4.6079-4.352-8.1919 0-.9387.427-1.408 1.28-1.408s1.28.4693 1.28 1.408c0 2.3893 1.237 4.3946 3.712 6.0159 2.56 1.536 5.803 2.304 9.728 2.304 3.243 0 6.784-.683 10.624-2.048 3.925-1.365 7.765-3.6266 11.52-6.7839.171-.1707.427-.256.768-.256.853 0 1.28.4266 1.28 1.28 0 .4266-.171.768-.512 1.024-3.669 3.1573-7.68 5.5039-12.032 7.0399-4.352 1.536-8.491 2.304-12.416 2.304Z" fill="#F765B8"/><path d="M258.825 54.5441c-2.048 0-3.797-.7254-5.248-2.176-1.451-1.4507-2.176-3.2-2.176-5.248 0-2.1334.725-3.9254 2.176-5.376 1.451-1.4507 3.2-2.176 5.248-2.176 2.133 0 3.925.7253 5.376 2.176 1.451 1.4506 2.176 3.2426 2.176 5.376 0 2.048-.725 3.7973-2.176 5.248-1.451 1.4506-3.243 2.176-5.376 2.176Zm0-2.56c1.451 0 2.645-.4694 3.584-1.408.939-.9387 1.408-2.0907 1.408-3.456 0-1.4507-.469-2.6454-1.408-3.584-.939-.9387-2.133-1.408-3.584-1.408-1.365 0-2.517.4693-3.456 1.408-.939.9386-1.408 2.1333-1.408 3.584 0 1.3653.469 2.5173 1.408 3.456.939.9386 2.091 1.408 3.456 1.408Zm-17.28 46.848c-1.621 0-2.773-.5974-3.456-1.792-.597-1.1947-.896-2.5174-.896-3.968 0-1.1947.299-2.9014.896-5.12.597-2.2187 1.408-4.608 2.432-7.168 1.109-2.6454 2.347-5.0774 3.712-7.296 1.365-2.304 2.773-4.1387 4.224-5.504.768-.768 1.579-1.4507 2.432-2.048.853-1.1947 1.28-2.304 1.28-3.328 0-1.28-.597-2.2614-1.792-2.944-1.109-.768-2.347-1.152-3.712-1.152-1.451 0-2.56.3413-3.328 1.024-1.195 1.1093-2.475 2.432-3.84 3.968-1.28 1.4506-2.645 3.1573-4.096 5.12-1.536 1.9626-3.157 4.096-4.864 6.4-1.707 2.2186-3.669 4.608-5.888 7.168-.256.3413-.597.512-1.024.512-.427 0-.768-.256-1.024-.768-.341-.512-.341-.9814 0-1.408 2.219-2.4747 4.181-4.864 5.888-7.168 1.792-2.304 3.413-4.3947 4.864-6.272 1.536-1.9627 2.944-3.712 4.224-5.248 1.365-1.6214 2.731-3.0294 4.096-4.224 1.28-1.1947 2.859-1.792 4.736-1.792 2.219 0 4.224.768 6.016 2.304 1.792 1.4506 2.688 3.1573 2.688 5.12 0 1.7066-.896 3.2853-2.688 4.736l-.64.512c-.853.768-1.749 1.5786-2.688 2.432-.853.8533-1.579 1.792-2.176 2.816-.939 1.9626-2.005 4.1386-3.2 6.528-1.109 2.304-2.091 4.608-2.944 6.912-.768 2.304-1.152 4.352-1.152 6.144 0 1.9626.811 2.944 2.432 2.944.768 0 1.707-.2134 2.816-.64 2.645-1.1094 5.376-2.8587 8.192-5.248 2.816-2.3894 5.845-5.6747 9.088-9.856.256-.3414.555-.512.896-.512.512 0 .939.256 1.28.768.341.4266.299.8533-.128 1.28-2.645 3.4133-5.12 6.1866-7.424 8.32-2.219 2.1333-4.821 4.0533-7.808 5.76-1.621.9386-3.029 1.6213-4.224 2.048-1.195.4266-2.261.64-3.2.64Zm-.64 7.8079c-4.181 0-7.467-1.451-9.856-4.352-2.304-2.9013-3.285-6.4853-2.944-10.7519.085-1.28.469-3.072 1.152-5.376.683-2.3894 1.536-4.7787 2.56-7.168 1.109-2.4747 2.219-4.48 3.328-6.016.256-.3414.597-.512 1.024-.512.427 0 .811.2133 1.152.64.341.4266.299.896-.128 1.408-1.024 1.3653-2.048 3.2-3.072 5.504-.939 2.304-1.749 4.5653-2.432 6.784-.597 2.2186-.939 3.8826-1.024 4.992-.256 3.1573.512 6.016 2.304 8.5759 1.792 2.56 4.48 3.84 8.064 3.84 2.219 0 4.821-.64 7.808-1.92 2.987-1.365 6.229-3.6266 9.728-6.7839.171-.1707.427-.256.768-.256.597 0 1.024.2986 1.28.896.341.512.256.9813-.256 1.408-3.669 3.2429-7.168 5.5889-10.496 7.0399-3.243 1.365-6.229 2.048-8.96 2.048Z" fill="#F765B8"/><path d="M272.853 98.4481c-2.048 0-3.413-.8107-4.096-2.432-.597-1.7067-.896-3.1147-.896-4.224 0-2.1334.725-4.6507 2.176-7.552 1.451-2.9014 3.328-5.76 5.632-8.576 2.304-2.816 4.779-5.1627 7.424-7.04 2.645-1.8774 5.163-2.816 7.552-2.816 1.195 0 1.792.4266 1.792 1.28 0 .3413-.128.6826-.384 1.024-.256.256-.597.3413-1.024.256-1.877-.1707-4.011.5973-6.4 2.304-2.304 1.6213-4.565 3.7546-6.784 6.4-2.133 2.56-3.925 5.1626-5.376 7.808-1.365 2.6453-2.048 4.9493-2.048 6.912 0 1.1946.213 2.176.64 2.944.427.768 1.024 1.152 1.792 1.152 1.451 0 3.115-.8534 4.992-2.56 1.963-1.792 3.968-4.0107 6.016-6.656 2.048-2.7307 4.011-5.5467 5.888-8.448 1.963-2.9867 3.669-5.6747 5.12-8.064 1.536-2.4747 2.688-4.3094 3.456-5.504 1.621-2.3894 3.243-4.0534 4.864-4.992 1.621-1.024 3.115-1.536 4.48-1.536 1.536 0 2.773.4693 3.712 1.408 1.024.9386 1.536 2.1333 1.536 3.584 0 1.28-.469 2.6453-1.408 4.096-.683 1.024-1.792 2.7306-3.328 5.12-1.536 2.304-3.115 4.8213-4.736 7.552-1.621 2.6453-2.987 5.0773-4.096 7.296-1.195 2.56-1.792 4.608-1.792 6.144 0 1.7066.853 2.56 2.56 2.56 1.536 0 3.243-.512 5.12-1.536 1.963-1.024 3.925-2.3467 5.888-3.968 1.963-1.6214 3.797-3.2854 5.504-4.992 1.707-1.792 3.115-3.4134 4.224-4.864.256-.3414.555-.512.896-.512.512 0 .896.256 1.152.768.341.4266.341.8533 0 1.28-1.109 1.6213-2.645 3.3706-4.608 5.248-1.877 1.8773-3.925 3.6693-6.144 5.376-2.219 1.7066-4.437 3.1146-6.656 4.224-2.219 1.024-4.181 1.536-5.888 1.536-1.621 0-2.816-.4694-3.584-1.408-.683-.9387-1.024-2.1334-1.024-3.584 0-1.792.512-3.84 1.536-6.144 1.109-2.3894 2.475-4.992 4.096-7.808 1.707-2.9014 3.371-5.5894 4.992-8.064 1.707-2.56 2.987-4.48 3.84-5.76.597-.8534.896-1.7067.896-2.56 0-1.6214-.853-2.432-2.56-2.432-.939 0-2.091.4266-3.456 1.28-1.28.8533-2.603 2.2613-3.968 4.224-1.877 2.816-3.968 6.0586-6.272 9.728-2.219 3.6693-4.48 7.1253-6.784 10.368-2.304 3.1573-4.693 5.9733-7.168 8.448-2.389 2.4746-4.821 3.712-7.296 3.712Zm-9.728-15.744c-.427 0-.768-.2134-1.024-.64-.341-.4267-.341-.896 0-1.408 1.451-2.048 3.115-4.2667 4.992-6.656 1.963-2.4747 4.139-4.7787 6.528-6.912 2.389-2.2187 4.949-4.0107 7.68-5.376 2.731-1.4507 5.589-2.176 8.576-2.176.939 0 1.877.128 2.816.384.939.1706 1.835.4266 2.688.768.512.256.768.64.768 1.152 0 .3413-.171.6826-.512 1.024-.341.256-.768.2986-1.28.128 0 0-.128-.0427-.384-.128-.256-.0854-.597-.1707-1.024-.256-.427-.1707-.896-.2987-1.408-.384-.512-.0854-1.067-.128-1.664-.128-3.499 0-6.827 1.0666-9.984 3.2-3.157 2.1333-6.101 4.736-8.832 7.808-2.645 3.072-4.949 6.0586-6.912 8.96-.256.4266-.597.64-1.024.64Zm32.384 23.9359c-3.84 0-6.613-1.024-8.32-3.072-1.621-2.133-2.432-4.4373-2.432-6.9119 0-2.048.512-4.0107 1.536-5.888.256-.4267.64-.64 1.152-.64.427 0 .768.2133 1.024.64.341.3413.384.768.128 1.28-.853 1.536-1.28 3.072-1.28 4.608 0 1.8773.64 3.5839 1.92 5.1199 1.28 1.536 3.371 2.304 6.272 2.304 3.243 0 6.315-.683 9.216-2.048 2.987-1.451 5.803-3.1573 8.448-5.1199.171-.1707.427-.256.768-.256.853 0 1.28.4266 1.28 1.28 0 .4266-.171.768-.512 1.024-2.731 2.0479-5.675 3.8399-8.832 5.3759-3.157 1.536-6.613 2.304-10.368 2.304Zm-24.448-.128c-2.816 0-5.333-.939-7.552-2.816-2.133-1.877-3.115-4.7786-2.944-8.7039 0-.768.427-1.152 1.28-1.152.341 0 .683.128 1.024.384.256.1706.341.4693.256.896-.085 3.072.683 5.3329 2.304 6.7839 1.621 1.365 3.499 2.048 5.632 2.048 1.707 0 3.413-.384 5.12-1.152 1.707-.853 3.115-2.048 4.224-3.5839.256-.3414.597-.512 1.024-.512.427 0 .811.2133 1.152.64.341.4266.299.8959-.128 1.4079-1.365 1.877-3.072 3.328-5.12 4.352-2.048.939-4.139 1.408-6.272 1.408Z" fill="#F765B8"/><path d="M321.875 82.7041c-.427 0-.768-.256-1.024-.768-.341-.512-.341-.9814 0-1.408 2.645-2.9867 4.907-5.632 6.784-7.936 1.963-2.3894 3.797-4.7787 5.504-7.168 1.792-2.3894 3.712-5.0347 5.76-7.936.939-1.28 2.005-2.176 3.2-2.688 1.195-.5974 2.347-.896 3.456-.896 1.792 0 3.328.512 4.608 1.536 1.365 1.024 2.048 2.176 2.048 3.456 0 .768-.299 1.4933-.896 2.176-.256.256-.555.384-.896.384-.427 0-.811-.2134-1.152-.64-.256-.512-.171-1.024.256-1.536.085-.0854.128-.256.128-.512s-.128-.5547-.384-.896c-.256-.3414-.853-.6827-1.792-1.024-.597-.256-1.237-.384-1.92-.384-.768 0-1.579.2133-2.432.64-.768.3413-1.493.9813-2.176 1.92-2.133 2.9013-4.096 5.5466-5.888 7.936-1.707 2.3893-3.499 4.7786-5.376 7.168-1.877 2.3893-4.139 5.0773-6.784 8.064-.256.3413-.597.512-1.024.512Zm44.672 14.464c-1.365 0-2.645-.2987-3.84-.896-1.109-.6827-1.664-1.664-1.664-2.944 0-.8534.213-1.664.64-2.432.597-1.1094 1.536-2.7734 2.816-4.992 1.28-2.304 2.603-4.6934 3.968-7.168 1.365-2.56 2.517-4.9067 3.456-7.04.939-2.2187 1.408-3.84 1.408-4.864 0-1.9627-.853-3.456-2.56-4.48-1.621-1.024-3.499-1.536-5.632-1.536-3.328 0-6.443.9386-9.344 2.816-2.901 1.792-5.547 3.968-7.936 6.528-2.389 2.56-4.565 5.0346-6.528 7.424-.256.3413-.597.512-1.024.512-.427 0-.811-.2134-1.152-.64-.256-.512-.213-.9814.128-1.408 2.219-2.6454 4.608-5.3334 7.168-8.064 2.56-2.7307 5.376-5.0347 8.448-6.912 3.157-1.8774 6.571-2.816 10.24-2.816 1.536 0 3.115.2986 4.736.896 1.707.512 3.115 1.408 4.224 2.688 1.195 1.28 1.792 2.944 1.792 4.992 0 1.28-.512 3.072-1.536 5.376-.939 2.2186-2.091 4.6506-3.456 7.296-1.365 2.56-2.688 4.992-3.968 7.296-1.28 2.304-2.261 4.096-2.944 5.376-.256.3413-.384.6826-.384 1.024 0 .5973.341.9813 1.024 1.152.683.1706 1.323.256 1.92.256 1.963 0 4.011-.8534 6.144-2.56 2.133-1.7067 4.139-3.6694 6.016-5.888 1.877-2.304 3.328-4.1814 4.352-5.632.256-.3414.555-.512.896-.512.427 0 .811.2133 1.152.64.427.4266.427.896 0 1.408-1.195 1.7066-2.816 3.7546-4.864 6.144-1.963 2.3893-4.139 4.48-6.528 6.272-2.389 1.792-4.779 2.688-7.168 2.688Zm-40.448 9.2159c-1.792 0-3.115-.597-3.968-1.792-.768-1.195-1.152-2.475-1.152-3.84 0-1.1093.469-2.6453 1.408-4.6079.939-1.9627 2.048-4.0534 3.328-6.272 1.365-2.2187 2.645-4.3094 3.84-6.272 1.195-1.9627 2.091-3.5414 2.688-4.736.256-.512.64-.768 1.152-.768.427 0 .768.1706 1.024.512.341.3413.384.768.128 1.28-.512 1.024-1.365 2.5173-2.56 4.48-1.109 1.9626-2.347 4.0533-3.712 6.272-1.28 2.2186-2.389 4.2666-3.328 6.144-.939 1.792-1.408 3.1146-1.408 3.9679 0 2.048.853 3.072 2.56 3.072s3.243-.768 4.608-2.304c1.365-1.6213 2.731-3.7119 4.096-6.2719 1.365-2.56 2.901-5.3334 4.608-8.32 1.707-2.9867 3.712-5.9307 6.016-8.832 2.304-2.9867 5.077-5.632 8.32-7.936 3.243-2.3894 7.125-4.1387 11.648-5.248h.384c.853 0 1.28.4266 1.28 1.28 0 .5973-.341.9813-1.024 1.152-4.352 1.1093-8.107 2.816-11.264 5.12-3.072 2.304-5.717 4.9493-7.936 7.936-2.219 2.9013-4.181 5.888-5.888 8.96-1.621 3.072-3.157 5.888-4.608 8.448-1.451 2.5599-2.987 4.6509-4.608 6.2719-1.621 1.536-3.499 2.304-5.632 2.304Zm33.92.128c-2.645 0-4.992-.811-7.04-2.432-1.963-1.621-2.944-3.968-2.944-7.0399v-.896c0-.3414.043-.6827.128-1.024.256-1.9627.896-4.1814 1.92-6.656 1.109-2.4747 2.347-4.9067 3.712-7.296 1.451-2.3894 2.731-4.3947 3.84-6.016.256-.4267.597-.64 1.024-.64.427 0 .768.2133 1.024.64.341.4266.341.9386 0 1.536 0 0-.427.64-1.28 1.92-.853 1.1946-1.792 2.7733-2.816 4.736-1.28 2.304-2.432 4.6933-3.456 7.168-1.024 2.4746-1.536 4.608-1.536 6.4 0 2.304.683 4.0529 2.048 5.2479 1.451 1.195 3.243 1.792 5.376 1.792 2.731 0 5.419-.555 8.064-1.664 2.645-1.109 5.035-2.4746 7.168-4.0959.171-.1707.427-.256.768-.256.853 0 1.28.4266 1.28 1.28 0 .4266-.171.768-.512 1.0239-2.389 1.792-4.992 3.285-7.808 4.48-2.816 1.195-5.803 1.792-8.96 1.792ZM531.876 58.6401c-.939 0-1.408-.4267-1.408-1.28 0-.8534.427-1.28 1.28-1.28 4.352-.1707 8.363-1.1947 12.032-3.072 3.755-1.9627 6.741-4.3947 8.96-7.296 2.304-2.9014 3.456-5.8027 3.456-8.704 0-2.4747-.939-4.736-2.816-6.784-1.877-2.1334-4.907-3.84-9.088-5.12-4.181-1.28-9.771-1.92-16.768-1.92-3.413 0-7.339.256-11.776.768-4.352.4266-8.789 1.1946-13.312 2.304-4.523 1.1093-8.789 2.6026-12.8 4.48-4.011 1.8773-7.424 4.224-10.24 7.04-.597.5973-1.28 1.152-2.048 1.664-.683.512-1.493.768-2.432.768-1.024 0-1.792-.3414-2.304-1.024-.512-.6827-.768-1.5787-.768-2.688 0-2.1334.64-4.1814 1.92-6.144 1.365-2.048 3.115-3.8827 5.248-5.504 2.133-1.7067 4.352-3.1147 6.656-4.224 5.461-2.6454 11.819-4.5227 19.072-5.632 7.339-1.1947 14.592-1.792 21.76-1.792 6.144 0 11.861.384 17.152 1.152 5.376.6826 9.771 1.7066 13.184 3.072 3.755 1.536 6.912 3.712 9.472 6.528 2.56 2.7306 3.84 6.3573 3.84 10.88 0 3.328-.683 6.528-2.048 9.6-1.28 2.9866-3.029 5.5893-5.248 7.808-2.219 2.2186-4.693 3.84-7.424 4.864-.085.0853-.256.128-.512.128-.768 0-1.152-.4267-1.152-1.28 0-.512.256-.896.768-1.152 3.84-1.4507 6.997-4.0534 9.472-7.808 2.475-3.84 3.712-7.8507 3.712-12.032 0-3.7547-1.024-6.8267-3.072-9.216-2.048-2.3894-4.736-4.2667-8.064-5.632-3.243-1.3654-6.741-2.3467-10.496-2.944-3.755-.6827-7.381-1.0667-10.88-1.152-3.499-.1707-6.485-.256-8.96-.256-7.253 0-14.379.5973-21.376 1.792-6.997 1.1093-13.013 2.8586-18.048 5.248-3.328 1.6213-6.229 3.712-8.704 6.272-2.475 2.56-3.712 4.992-3.712 7.296 0 .8533.299 1.28.896 1.28.427 0 .981-.3414 1.664-1.024.683-.6827 1.195-1.2374 1.536-1.664 2.987-3.072 7.168-5.6747 12.544-7.808 5.376-2.1334 11.264-3.7547 17.664-4.864 6.4-1.1094 12.629-1.664 18.688-1.664 7.595 0 13.696.768 18.304 2.304 4.608 1.536 7.936 3.5413 9.984 6.016 2.048 2.3893 3.072 5.0346 3.072 7.936 0 3.4133-1.237 6.7413-3.712 9.984-2.389 3.2426-5.632 5.9733-9.728 8.192-4.011 2.2186-8.491 3.4133-13.44 3.584ZM447.78 110.352c-3.157 0-6.528-.384-10.112-1.152-3.584-.683-6.912-1.792-9.984-3.328-3.072-1.621-5.589-3.712-7.552-6.2719-1.963-2.6454-2.944-5.888-2.944-9.728 0-5.0347 1.323-9.8134 3.968-14.336 2.731-4.5227 6.272-8.4907 10.624-11.904 4.437-3.4987 9.301-6.2294 14.592-8.192 5.376-2.048 10.709-3.072 16-3.072 2.048 0 4.651.256 7.808.768 3.243.512 6.485 1.3653 9.728 2.56 3.243 1.1093 5.973 2.6026 8.192 4.48 2.304 1.8773 3.541 4.1813 3.712 6.912.085.8533-.512 1.8346-1.792 2.944-1.195 1.1093-2.304 1.664-3.328 1.664-.768 0-1.28-.4267-1.536-1.28-.256-1.1094-1.621-2.3894-4.096-3.84-2.389-1.536-5.419-2.8587-9.088-3.968-3.584-1.1947-7.296-1.792-11.136-1.792-4.181 0-8.192.8533-12.032 2.56-3.84 1.7066-7.296 3.9253-10.368 6.656-3.072 2.6453-5.504 5.5466-7.296 8.704-1.792 3.1573-2.688 6.2293-2.688 9.216 0 3.6693 1.621 6.784 4.864 9.344 3.243 2.4746 8.704 3.7119 16.384 3.7119 4.011 0 8.192-.853 12.544-2.5599 4.352-1.792 8.704-4.1387 13.056-7.04 4.352-2.9014 8.576-6.144 12.672-9.728 4.096-3.6694 7.893-7.424 11.392-11.264 3.499-3.84 6.571-7.4667 9.216-10.88 1.536-1.9627 3.328-4.3094 5.376-7.04 2.133-2.7307 4.309-5.5894 6.528-8.576 2.304-2.9867 4.437-5.8027 6.4-8.448 2.048-2.6454 3.669-4.9067 4.864-6.784.256-.4267.64-.64 1.152-.64.427 0 .768.2133 1.024.64.256.3413.213.768-.128 1.28-1.28 1.8773-2.901 4.1813-4.864 6.912-1.963 2.7306-4.096 5.5893-6.4 8.576-2.219 2.9013-4.395 5.76-6.528 8.576-2.048 2.7306-3.84 5.0773-5.376 7.04-2.645 3.4133-5.76 7.0826-9.344 11.008-3.584 3.84-7.467 7.6373-11.648 11.392-4.181 3.6693-8.533 7.04-13.056 10.112-4.523 2.9866-9.088 5.4186-13.696 7.2959-4.523 1.792-8.917 2.688-13.184 2.688-3.584 0-7.211-.427-10.88-1.28-3.584-.939-6.613-2.5173-9.088-4.7359-2.475-2.304-3.712-5.504-3.712-9.6s1.067-7.936 3.2-11.52c2.219-3.584 5.077-6.7414 8.576-9.472 3.499-2.7307 7.253-4.864 11.264-6.4 4.096-1.536 8.021-2.304 11.776-2.304 3.584 0 7.253.5546 11.008 1.664 3.755 1.024 7.04 2.3893 9.856 4.096 2.816 1.6213 4.651 3.2853 5.504 4.992.939-.512 1.621-1.152 2.048-1.92-.171-2.2187-1.365-4.096-3.584-5.632-2.133-1.6214-4.693-2.9014-7.68-3.84-2.987-.9387-5.931-1.6214-8.832-2.048-2.816-.4267-5.077-.64-6.784-.64-4.949 0-9.941.9386-14.976 2.816-5.035 1.8773-9.643 4.48-13.824 7.808-4.096 3.2426-7.424 6.9546-9.984 11.136-2.475 4.096-3.712 8.448-3.712 13.056 0 3.1573.811 5.888 2.432 8.192 1.707 2.3039 3.925 4.1809 6.656 5.6319 2.731 1.451 5.717 2.517 8.96 3.2 3.328.683 6.613 1.024 9.856 1.024 6.997 0 13.781-1.28 20.352-3.84 6.656-2.56 12.928-5.8879 18.816-9.9839 5.973-4.1814 11.435-8.7467 16.384-13.696 4.949-4.9494 9.216-9.8134 12.8-14.592.171 0 .427-.1707.768-.512 3.499-.9387 7.381-1.408 11.648-1.408 2.475 0 4.907.1706 7.296.512 2.475.3413 4.779.8533 6.912 1.536 3.157 1.1093 5.803 2.688 7.936 4.736 2.219 1.9626 3.328 4.5226 3.328 7.68 0 1.8773-.512 3.968-1.536 6.272-1.621 3.584-3.883 6.5706-6.784 8.96-2.901 2.304-6.144 4.0533-9.728 5.248-3.584 1.1946-7.211 1.7919-10.88 1.7919-3.584 0-6.997-.5546-10.24-1.6639-3.243-1.1094-5.973-2.7734-8.192-4.992-.256-.256-.384-.5547-.384-.896 0-.4267.256-.768.768-1.024.512-.3414.981-.2987 1.408.128 2.219 2.2186 4.651 3.84 7.296 4.864 2.731.9386 5.461 1.408 8.192 1.408 3.413 0 6.741-.5974 9.984-1.792 3.328-1.1947 6.315-2.7734 8.96-4.736 2.645-1.9627 4.736-4.096 6.272-6.4 1.621-2.3894 2.432-4.736 2.432-7.04 0-2.048-.768-3.968-2.304-5.76-1.451-1.792-3.883-3.2427-7.296-4.352-1.963-.6827-4.096-1.1947-6.4-1.536-2.304-.3414-4.565-.512-6.784-.512-4.011 0-7.637.4693-10.88 1.408-3.584 4.7786-7.893 9.6853-12.928 14.72-5.035 5.0346-10.624 9.6853-16.768 13.952-6.059 4.1809-12.501 7.5519-19.328 10.1119-6.827 2.645-13.867 3.968-21.12 3.968Zm76.416-52.8639c-.427 0-.811-.1707-1.152-.512-.341-.4267-.341-.896 0-1.408 1.109-1.792 2.56-4.096 4.352-6.912 1.877-2.816 3.883-5.8454 6.016-9.088 2.219-3.328 4.267-6.4427 6.144-9.344.256-.4267.597-.64 1.024-.64.427 0 .811.2133 1.152.64.341.4266.341.896 0 1.408-1.877 2.9013-3.925 5.9733-6.144 9.216-2.133 3.2426-4.139 6.272-6.016 9.088-1.792 2.816-3.243 5.12-4.352 6.912-.171.4266-.512.64-1.024.64Zm3.584 49.7919c-5.717 0-11.221-.853-16.512-2.56-5.291-1.792-9.515-4.267-12.672-7.4239-.256-.256-.384-.5547-.384-.896 0-.4267.256-.768.768-1.024.512-.3414.981-.2987 1.408.128 2.987 2.9013 6.912 5.1629 11.776 6.7839 4.949 1.621 10.069 2.432 15.36 2.432 4.949 0 9.771-.725 14.464-2.176 4.779-1.536 8.917-3.8399 12.416-6.9119 3.584-3.072 6.059-7.04 7.424-11.904.597-1.8774.896-3.7974.896-5.76 0-4.5227-1.707-8.064-5.12-10.624-3.328-2.56-7.979-4.224-13.952-4.992-.768-.1707-1.152-.5974-1.152-1.28 0-1.024.512-1.4507 1.536-1.28 6.229.768 11.307 2.6453 15.232 5.632 4.011 2.9866 6.016 7.1253 6.016 12.416 0 1.024-.085 2.0906-.256 3.2-.171 1.1093-.427 2.2613-.768 3.456-1.536 5.2906-4.181 9.6426-7.936 13.056-3.755 3.3279-8.149 5.8029-13.184 7.4239-4.949 1.536-10.069 2.304-15.36 2.304ZM586.625 86.2881c-1.536 0-2.859-.3414-3.968-1.024-.512-.256-.768-.5974-.768-1.024 0-.4267.171-.768.512-1.024.427-.3414.896-.384 1.408-.128 1.024.4266 1.963.64 2.816.64 1.792 0 3.755-.512 5.888-1.536 2.133-1.1094 4.181-2.5174 6.144-4.224 1.963-1.7067 3.541-3.5414 4.736-5.504 1.28-1.9627 1.92-3.84 1.92-5.632 0-3.4987-1.792-5.248-5.376-5.248-4.011 0-7.765 1.0666-11.264 3.2-3.413 2.048-6.571 4.6506-9.472 7.808-2.816 3.072-5.333 6.2293-7.552 9.472-.256.4266-.597.64-1.024.64-.427 0-.768-.2134-1.024-.64-.341-.4267-.341-.896 0-1.408 2.219-3.2427 4.821-6.528 7.808-9.856 2.987-3.328 6.357-6.1014 10.112-8.32 3.84-2.304 7.979-3.456 12.416-3.456 2.304 0 4.181.6826 5.632 2.048 1.536 1.3653 2.304 3.2853 2.304 5.76 0 2.304-.725 4.608-2.176 6.912-1.365 2.2186-3.157 4.3093-5.376 6.272-2.133 1.8773-4.437 3.4133-6.912 4.608-2.475 1.1093-4.736 1.664-6.784 1.664Zm-2.944 11.904c-2.304 0-4.437-.5974-6.4-1.792-1.877-1.1947-2.816-3.2427-2.816-6.144 0-2.3894.853-4.9494 2.56-7.68 1.792-2.7307 3.968-5.3334 6.528-7.808 2.645-2.56 5.333-4.7787 8.064-6.656 2.731-1.8774 5.077-3.1147 7.04-3.712h.128c.085-.0854.171-.128.256-.128.853 0 1.28.4693 1.28 1.408 0 .512-.299.896-.896 1.152-1.877.5973-4.096 1.792-6.656 3.584-2.475 1.792-4.949 3.8826-7.424 6.272-2.389 2.304-4.395 4.6506-6.016 7.04-1.536 2.3893-2.304 4.5653-2.304 6.528 0 1.8773.597 3.2426 1.792 4.096 1.28.8533 2.901 1.28 4.864 1.28 5.035 0 10.112-1.3227 15.232-3.968 5.205-2.7307 9.643-6.4854 13.312-11.264.256-.3414.555-.512.896-.512.512 0 .896.256 1.152.768.341.4266.299.896-.128 1.408-3.84 4.9493-8.533 8.8746-14.08 11.776-5.461 2.9013-10.923 4.352-16.384 4.352Zm-.64 7.6799c-2.219 0-4.48-.341-6.784-1.024-2.304-.683-4.224-1.792-5.76-3.328-1.621-1.6213-2.432-3.7546-2.432-6.3999 0-.9387.427-1.408 1.28-1.408s1.28.4693 1.28 1.408c0 1.6213.299 2.9013.896 3.84.683.9386 1.835 1.7919 3.456 2.5599 1.28.597 2.645 1.067 4.096 1.408 1.536.256 2.859.384 3.968.384 3.157 0 6.229-.597 9.216-1.792 3.072-1.195 5.888-2.7306 8.448-4.6079.171-.1707.427-.256.768-.256.853 0 1.28.4266 1.28 1.28 0 .4266-.171.768-.512 1.024-2.731 2.0479-5.76 3.7119-9.088 4.9919-3.243 1.28-6.613 1.92-10.112 1.92Z" fill="#F765B8"/><path d="M613.125 82.7041c-.427 0-.768-.256-1.024-.768-.341-.512-.341-.9814 0-1.408 2.645-2.9867 4.907-5.632 6.784-7.936 1.963-2.3894 3.797-4.7787 5.504-7.168 1.792-2.3894 3.712-5.0347 5.76-7.936.939-1.28 2.005-2.176 3.2-2.688 1.195-.5974 2.347-.896 3.456-.896 1.792 0 3.328.512 4.608 1.536 1.365 1.024 2.048 2.176 2.048 3.456 0 .768-.299 1.4933-.896 2.176-.256.256-.555.384-.896.384-.427 0-.811-.2134-1.152-.64-.256-.512-.171-1.024.256-1.536.085-.0854.128-.256.128-.512s-.128-.5547-.384-.896c-.256-.3414-.853-.6827-1.792-1.024-.597-.256-1.237-.384-1.92-.384-.768 0-1.579.2133-2.432.64-.768.3413-1.493.9813-2.176 1.92-2.133 2.9013-4.096 5.5466-5.888 7.936-1.707 2.3893-3.499 4.7786-5.376 7.168-1.877 2.3893-4.139 5.0773-6.784 8.064-.256.3413-.597.512-1.024.512Zm44.672 14.464c-1.365 0-2.645-.2987-3.84-.896-1.109-.6827-1.664-1.664-1.664-2.944 0-.8534.213-1.664.64-2.432.597-1.1094 1.536-2.7734 2.816-4.992 1.28-2.304 2.603-4.6934 3.968-7.168 1.365-2.56 2.517-4.9067 3.456-7.04.939-2.2187 1.408-3.84 1.408-4.864 0-1.9627-.853-3.456-2.56-4.48-1.621-1.024-3.499-1.536-5.632-1.536-3.328 0-6.443.9386-9.344 2.816-2.901 1.792-5.547 3.968-7.936 6.528-2.389 2.56-4.565 5.0346-6.528 7.424-.256.3413-.597.512-1.024.512-.427 0-.811-.2134-1.152-.64-.256-.512-.213-.9814.128-1.408 2.219-2.6454 4.608-5.3334 7.168-8.064 2.56-2.7307 5.376-5.0347 8.448-6.912 3.157-1.8774 6.571-2.816 10.24-2.816 1.536 0 3.115.2986 4.736.896 1.707.512 3.115 1.408 4.224 2.688 1.195 1.28 1.792 2.944 1.792 4.992 0 1.28-.512 3.072-1.536 5.376-.939 2.2186-2.091 4.6506-3.456 7.296-1.365 2.56-2.688 4.992-3.968 7.296-1.28 2.304-2.261 4.096-2.944 5.376-.256.3413-.384.6826-.384 1.024 0 .5973.341.9813 1.024 1.152.683.1706 1.323.256 1.92.256 1.963 0 4.011-.8534 6.144-2.56 2.133-1.7067 4.139-3.6694 6.016-5.888 1.877-2.304 3.328-4.1814 4.352-5.632.256-.3414.555-.512.896-.512.427 0 .811.2133 1.152.64.427.4266.427.896 0 1.408-1.195 1.7066-2.816 3.7546-4.864 6.144-1.963 2.3893-4.139 4.48-6.528 6.272-2.389 1.792-4.779 2.688-7.168 2.688Zm-40.448 9.2159c-1.792 0-3.115-.597-3.968-1.792-.768-1.195-1.152-2.475-1.152-3.84 0-1.1093.469-2.6453 1.408-4.6079.939-1.9627 2.048-4.0534 3.328-6.272 1.365-2.2187 2.645-4.3094 3.84-6.272 1.195-1.9627 2.091-3.5414 2.688-4.736.256-.512.64-.768 1.152-.768.427 0 .768.1706 1.024.512.341.3413.384.768.128 1.28-.512 1.024-1.365 2.5173-2.56 4.48-1.109 1.9626-2.347 4.0533-3.712 6.272-1.28 2.2186-2.389 4.2666-3.328 6.144-.939 1.792-1.408 3.1146-1.408 3.9679 0 2.048.853 3.072 2.56 3.072s3.243-.768 4.608-2.304c1.365-1.6213 2.731-3.7119 4.096-6.2719 1.365-2.56 2.901-5.3334 4.608-8.32 1.707-2.9867 3.712-5.9307 6.016-8.832 2.304-2.9867 5.077-5.632 8.32-7.936 3.243-2.3894 7.125-4.1387 11.648-5.248h.384c.853 0 1.28.4266 1.28 1.28 0 .5973-.341.9813-1.024 1.152-4.352 1.1093-8.107 2.816-11.264 5.12-3.072 2.304-5.717 4.9493-7.936 7.936-2.219 2.9013-4.181 5.888-5.888 8.96-1.621 3.072-3.157 5.888-4.608 8.448-1.451 2.5599-2.987 4.6509-4.608 6.2719-1.621 1.536-3.499 2.304-5.632 2.304Zm33.92.128c-2.645 0-4.992-.811-7.04-2.432-1.963-1.621-2.944-3.968-2.944-7.0399v-.896c0-.3414.043-.6827.128-1.024.256-1.9627.896-4.1814 1.92-6.656 1.109-2.4747 2.347-4.9067 3.712-7.296 1.451-2.3894 2.731-4.3947 3.84-6.016.256-.4267.597-.64 1.024-.64.427 0 .768.2133 1.024.64.341.4266.341.9386 0 1.536 0 0-.427.64-1.28 1.92-.853 1.1946-1.792 2.7733-2.816 4.736-1.28 2.304-2.432 4.6933-3.456 7.168-1.024 2.4746-1.536 4.608-1.536 6.4 0 2.304.683 4.0529 2.048 5.2479 1.451 1.195 3.243 1.792 5.376 1.792 2.731 0 5.419-.555 8.064-1.664 2.645-1.109 5.035-2.4746 7.168-4.0959.171-.1707.427-.256.768-.256.853 0 1.28.4266 1.28 1.28 0 .4266-.171.768-.512 1.0239-2.389 1.792-4.992 3.285-7.808 4.48-2.816 1.195-5.803 1.792-8.96 1.792Z" fill="#F765B8"/><path d="M691.375 86.2881c-1.536 0-2.859-.3414-3.968-1.024-.512-.256-.768-.5974-.768-1.024 0-.4267.171-.768.512-1.024.427-.3414.896-.384 1.408-.128 1.024.4266 1.963.64 2.816.64 1.792 0 3.755-.512 5.888-1.536 2.133-1.1094 4.181-2.5174 6.144-4.224 1.963-1.7067 3.541-3.5414 4.736-5.504 1.28-1.9627 1.92-3.84 1.92-5.632 0-3.4987-1.792-5.248-5.376-5.248-4.011 0-7.765 1.0666-11.264 3.2-3.413 2.048-6.571 4.6506-9.472 7.808-2.816 3.072-5.333 6.2293-7.552 9.472-.256.4266-.597.64-1.024.64-.427 0-.768-.2134-1.024-.64-.341-.4267-.341-.896 0-1.408 2.219-3.2427 4.821-6.528 7.808-9.856 2.987-3.328 6.357-6.1014 10.112-8.32 3.84-2.304 7.979-3.456 12.416-3.456 2.304 0 4.181.6826 5.632 2.048 1.536 1.3653 2.304 3.2853 2.304 5.76 0 2.304-.725 4.608-2.176 6.912-1.365 2.2186-3.157 4.3093-5.376 6.272-2.133 1.8773-4.437 3.4133-6.912 4.608-2.475 1.1093-4.736 1.664-6.784 1.664Zm-2.944 11.904c-2.304 0-4.437-.5974-6.4-1.792-1.877-1.1947-2.816-3.2427-2.816-6.144 0-2.3894.853-4.9494 2.56-7.68 1.792-2.7307 3.968-5.3334 6.528-7.808 2.645-2.56 5.333-4.7787 8.064-6.656 2.731-1.8774 5.077-3.1147 7.04-3.712h.128c.085-.0854.171-.128.256-.128.853 0 1.28.4693 1.28 1.408 0 .512-.299.896-.896 1.152-1.877.5973-4.096 1.792-6.656 3.584-2.475 1.792-4.949 3.8826-7.424 6.272-2.389 2.304-4.395 4.6506-6.016 7.04-1.536 2.3893-2.304 4.5653-2.304 6.528 0 1.8773.597 3.2426 1.792 4.096 1.28.8533 2.901 1.28 4.864 1.28 5.035 0 10.112-1.3227 15.232-3.968 5.205-2.7307 9.643-6.4854 13.312-11.264.256-.3414.555-.512.896-.512.512 0 .896.256 1.152.768.341.4266.299.896-.128 1.408-3.84 4.9493-8.533 8.8746-14.08 11.776-5.461 2.9013-10.923 4.352-16.384 4.352Zm-.64 7.6799c-2.219 0-4.48-.341-6.784-1.024-2.304-.683-4.224-1.792-5.76-3.328-1.621-1.6213-2.432-3.7546-2.432-6.3999 0-.9387.427-1.408 1.28-1.408s1.28.4693 1.28 1.408c0 1.6213.299 2.9013.896 3.84.683.9386 1.835 1.7919 3.456 2.5599 1.28.597 2.645 1.067 4.096 1.408 1.536.256 2.859.384 3.968.384 3.157 0 6.229-.597 9.216-1.792 3.072-1.195 5.888-2.7306 8.448-4.6079.171-.1707.427-.256.768-.256.853 0 1.28.4266 1.28 1.28 0 .4266-.171.768-.512 1.024-2.731 2.0479-5.76 3.7119-9.088 4.9919-3.243 1.28-6.613 1.92-10.112 1.92Z" fill="#F765B8"/><path d="M730.163 98.4481c-2.048 0-3.413-.8107-4.096-2.432-.597-1.7067-.896-3.1147-.896-4.224 0-2.1334.725-4.6934 2.176-7.68 1.536-2.9867 3.499-5.9307 5.888-8.832 2.389-2.9014 4.949-5.2907 7.68-7.168 2.731-1.9627 5.291-2.944 7.68-2.944 1.024 0 1.536.4266 1.536 1.28 0 .3413-.128.6826-.384 1.024-.256.256-.597.3413-1.024.256-1.877-.0854-4.011.7253-6.4 2.432-2.389 1.7066-4.693 3.8826-6.912 6.528-2.219 2.6453-4.053 5.3333-5.504 8.064-1.451 2.7306-2.176 5.0773-2.176 7.04 0 1.1946.213 2.176.64 2.944.427.768 1.024 1.152 1.792 1.152 1.28 0 2.731-.896 4.352-2.688 1.621-1.792 3.413-4.096 5.376-6.912 1.963-2.9014 4.011-5.888 6.144-8.96 2.219-3.328 4.437-6.4854 6.656-9.472 2.304-3.072 4.523-5.5467 6.656-7.424 2.219-1.9627 4.309-2.944 6.272-2.944 1.109 0 2.133.3413 3.072 1.024.939.6826 1.408 1.7493 1.408 3.2 0 .1706-.256 1.1093-.768 2.816-.512 1.6213-1.152 3.6266-1.92 6.016-.683 2.3893-1.408 4.7786-2.176 7.168-.768 2.304-1.451 4.352-2.048 6.144-.512 1.7066-.853 2.7306-1.024 3.072-.256.512-.597.768-1.024.768-.427 0-.811-.1707-1.152-.512-.256-.3414-.299-.768-.128-1.28.171-.3414.512-1.3654 1.024-3.072.597-1.7067 1.237-3.712 1.92-6.016.768-2.304 1.493-4.608 2.176-6.912.768-2.304 1.365-4.224 1.792-5.76.512-1.536.768-2.3467.768-2.432 0-1.1094-.64-1.664-1.92-1.664-1.109 0-2.219.4266-3.328 1.28-2.133 1.3653-4.437 3.7546-6.912 7.168-2.475 3.328-4.949 6.8693-7.424 10.624-2.133 3.1573-4.267 6.2293-6.4 9.216-2.048 2.9866-4.053 5.4186-6.016 7.296-1.963 1.8773-3.755 2.816-5.376 2.816Zm-12.672-15.616c-.427 0-.768-.1707-1.024-.512-.256-.4267-.213-.896.128-1.408 3.157-3.7547 6.357-7.296 9.6-10.624 3.243-3.328 6.613-6.0587 10.112-8.192 3.584-2.1334 7.381-3.2 11.392-3.2 1.195 0 2.261.0853 3.2.256 1.024.1706 1.877.512 2.56 1.024.341.256.512.5973.512 1.024 0 .4266-.213.8106-.64 1.152-.427.256-.896.2133-1.408-.128-.597-.512-2.005-.768-4.224-.768-3.499 0-6.869.9813-10.112 2.944-3.243 1.8773-6.4 4.3946-9.472 7.552-3.072 3.1573-6.187 6.5706-9.344 10.24-.341.4266-.768.64-1.28.64Zm-4.736 52.7359c-1.109.085-2.261-.213-3.456-.896-1.28-.597-1.92-1.707-1.92-3.328 0-1.877.896-3.883 2.688-6.016 1.792-2.048 4.053-4.096 6.784-6.144 2.645-1.963 5.333-3.797 8.064-5.504 2.731-1.707 5.035-3.157 6.912-4.352.341-.171.555-.256.64-.256.427 0 .725.128.896.384.256.341.384.683.384 1.024 0 .427-.171.768-.512 1.024-1.536 1.024-3.541 2.304-6.016 3.84s-4.949 3.157-7.424 4.864c-2.475 1.792-4.608 3.584-6.4 5.376-1.877 1.792-3.029 3.456-3.456 4.992v.256c-.085.171-.128.299-.128.384 0 1.195.811 1.792 2.432 1.792 2.987 0 6.229-1.237 9.728-3.712 3.584-2.475 7.125-5.803 10.624-9.984 3.499-4.096 6.784-8.619 9.856-13.568 3.072-5.035 5.675-10.0693 7.808-15.1039 2.133-5.0347 3.541-9.6427 4.224-13.824.085-.6827.512-1.024 1.28-1.024.341 0 .64.128.896.384.341.256.469.64.384 1.152-.683 4.1813-2.091 8.832-4.224 13.952-2.133 5.12-4.779 10.2399-7.936 15.3599-3.157 5.12-6.571 9.813-10.24 14.08-3.669 4.352-7.381 7.851-11.136 10.496-3.755 2.731-7.339 4.181-10.752 4.352Zm-1.024 8.96c-2.048 0-3.968-.597-5.76-1.792-1.877-1.109-2.645-3.029-2.304-5.76 0-.768.384-1.152 1.152-1.152.341 0 .683.128 1.024.384.256.256.341.597.256 1.024-.171 1.621.299 2.816 1.408 3.584 1.024.768 2.432 1.152 4.224 1.152 4.096 0 8.021-1.024 11.776-3.072 3.84-1.963 7.467-4.651 10.88-8.064 3.499-3.328 6.656-7.04 9.472-11.136 2.901-4.096 5.461-8.277 7.68-12.544 2.304-4.181 4.139-8.1493 5.504-11.9039.341-.9387.555-1.536.64-1.792.171-.3414.725-.7254 1.664-1.152 1.877-.8534 4.224-2.1334 7.04-3.84 2.816-1.7067 5.717-4.48 8.704-8.32.256-.3414.597-.512 1.024-.512.427 0 .768.256 1.024.768.341.4266.341.8533 0 1.28-2.56 3.4133-5.291 6.1013-8.192 8.064-2.901 1.8773-5.973 3.6693-9.216 5.376-1.365 3.6693-3.157 7.7229-5.376 12.1599-2.219 4.437-4.864 8.832-7.936 13.184-2.987 4.352-6.315 8.32-9.984 11.904-3.584 3.669-7.467 6.613-11.648 8.832-4.181 2.219-8.533 3.328-13.056 3.328Zm14.976-37.76c-3.157 0-5.803-.981-7.936-2.944s-3.2-4.6506-3.2-8.0639c0-.4267.043-.896.128-1.408 0-.512.043-1.024.128-1.536.085-.6827.469-1.024 1.152-1.024.939 0 1.408.4266 1.408 1.28 0 .4266-.043.896-.128 1.408-.085.4266-.128.8106-.128 1.152 0 2.6453.811 4.7359 2.432 6.2719 1.621 1.536 3.627 2.304 6.016 2.304 2.645 0 5.547-.939 8.704-2.816 3.157-1.8773 6.101-4.9919 8.832-9.3439.256-.4267.597-.64 1.024-.64.427 0 .768.2133 1.024.64.341.3413.341.768 0 1.28-2.901 4.608-6.101 8.0209-9.6 10.2399-3.413 2.133-6.699 3.2-9.856 3.2Z" fill="#F765B8"/><path d="M785.603 98.4481c-2.048 0-3.413-.8107-4.096-2.432-.597-1.7067-.896-3.1147-.896-4.224 0-2.1334.725-4.6507 2.176-7.552 1.451-2.9014 3.328-5.76 5.632-8.576 2.304-2.816 4.779-5.1627 7.424-7.04 2.645-1.8774 5.163-2.816 7.552-2.816 1.195 0 1.792.4266 1.792 1.28 0 .3413-.128.6826-.384 1.024-.256.256-.597.3413-1.024.256-1.877-.1707-4.011.5973-6.4 2.304-2.304 1.6213-4.565 3.7546-6.784 6.4-2.133 2.56-3.925 5.1626-5.376 7.808-1.365 2.6453-2.048 4.9493-2.048 6.912 0 1.1946.213 2.176.64 2.944.427.768 1.024 1.152 1.792 1.152 1.451 0 3.115-.8534 4.992-2.56 1.963-1.792 3.968-4.0107 6.016-6.656 2.048-2.7307 4.011-5.5467 5.888-8.448 1.963-2.9867 3.669-5.6747 5.12-8.064 1.536-2.4747 2.688-4.3094 3.456-5.504 1.621-2.3894 3.243-4.0534 4.864-4.992 1.621-1.024 3.115-1.536 4.48-1.536 1.536 0 2.773.4693 3.712 1.408 1.024.9386 1.536 2.1333 1.536 3.584 0 1.28-.469 2.6453-1.408 4.096-.683 1.024-1.792 2.7306-3.328 5.12-1.536 2.304-3.115 4.8213-4.736 7.552-1.621 2.6453-2.987 5.0773-4.096 7.296-1.195 2.56-1.792 4.608-1.792 6.144 0 1.7066.853 2.56 2.56 2.56 1.536 0 3.243-.512 5.12-1.536 1.963-1.024 3.925-2.3467 5.888-3.968 1.963-1.6214 3.797-3.2854 5.504-4.992 1.707-1.792 3.115-3.4134 4.224-4.864.256-.3414.555-.512.896-.512.512 0 .896.256 1.152.768.341.4266.341.8533 0 1.28-1.109 1.6213-2.645 3.3706-4.608 5.248-1.877 1.8773-3.925 3.6693-6.144 5.376-2.219 1.7066-4.437 3.1146-6.656 4.224-2.219 1.024-4.181 1.536-5.888 1.536-1.621 0-2.816-.4694-3.584-1.408-.683-.9387-1.024-2.1334-1.024-3.584 0-1.792.512-3.84 1.536-6.144 1.109-2.3894 2.475-4.992 4.096-7.808 1.707-2.9014 3.371-5.5894 4.992-8.064 1.707-2.56 2.987-4.48 3.84-5.76.597-.8534.896-1.7067.896-2.56 0-1.6214-.853-2.432-2.56-2.432-.939 0-2.091.4266-3.456 1.28-1.28.8533-2.603 2.2613-3.968 4.224-1.877 2.816-3.968 6.0586-6.272 9.728-2.219 3.6693-4.48 7.1253-6.784 10.368-2.304 3.1573-4.693 5.9733-7.168 8.448-2.389 2.4746-4.821 3.712-7.296 3.712Zm-9.728-15.744c-.427 0-.768-.2134-1.024-.64-.341-.4267-.341-.896 0-1.408 1.451-2.048 3.115-4.2667 4.992-6.656 1.963-2.4747 4.139-4.7787 6.528-6.912 2.389-2.2187 4.949-4.0107 7.68-5.376 2.731-1.4507 5.589-2.176 8.576-2.176.939 0 1.877.128 2.816.384.939.1706 1.835.4266 2.688.768.512.256.768.64.768 1.152 0 .3413-.171.6826-.512 1.024-.341.256-.768.2986-1.28.128 0 0-.128-.0427-.384-.128-.256-.0854-.597-.1707-1.024-.256-.427-.1707-.896-.2987-1.408-.384-.512-.0854-1.067-.128-1.664-.128-3.499 0-6.827 1.0666-9.984 3.2-3.157 2.1333-6.101 4.736-8.832 7.808-2.645 3.072-4.949 6.0586-6.912 8.96-.256.4266-.597.64-1.024.64Zm32.384 23.9359c-3.84 0-6.613-1.024-8.32-3.072-1.621-2.133-2.432-4.4373-2.432-6.9119 0-2.048.512-4.0107 1.536-5.888.256-.4267.64-.64 1.152-.64.427 0 .768.2133 1.024.64.341.3413.384.768.128 1.28-.853 1.536-1.28 3.072-1.28 4.608 0 1.8773.64 3.5839 1.92 5.1199 1.28 1.536 3.371 2.304 6.272 2.304 3.243 0 6.315-.683 9.216-2.048 2.987-1.451 5.803-3.1573 8.448-5.1199.171-.1707.427-.256.768-.256.853 0 1.28.4266 1.28 1.28 0 .4266-.171.768-.512 1.024-2.731 2.0479-5.675 3.8399-8.832 5.3759-3.157 1.536-6.613 2.304-10.368 2.304Zm-24.448-.128c-2.816 0-5.333-.939-7.552-2.816-2.133-1.877-3.115-4.7786-2.944-8.7039 0-.768.427-1.152 1.28-1.152.341 0 .683.128 1.024.384.256.1706.341.4693.256.896-.085 3.072.683 5.3329 2.304 6.7839 1.621 1.365 3.499 2.048 5.632 2.048 1.707 0 3.413-.384 5.12-1.152 1.707-.853 3.115-2.048 4.224-3.5839.256-.3414.597-.512 1.024-.512.427 0 .811.2133 1.152.64.341.4266.299.8959-.128 1.4079-1.365 1.877-3.072 3.328-5.12 4.352-2.048.939-4.139 1.408-6.272 1.408Z" fill="#F765B8"/><path d="M862.273 94.9921c-.853 0-1.28-.3414-1.28-1.024 0-.4267.171-.8107.512-1.152 2.133-2.304 3.499-4.7787 4.096-7.424.597-2.6454.896-5.2907.896-7.936 0-1.792-.085-3.4987-.256-5.12-.085-1.6214-.128-3.1147-.128-4.48 0-2.3894.341-4.1387 1.024-5.248.256-.3414.896-.7254 1.92-1.152 1.024-.4267 2.005-.9814 2.944-1.664.939-.768 1.408-1.7067 1.408-2.816 0-.512-.128-1.024-.384-1.536-.085-.3414-.384-.6827-.896-1.024-.427-.3414-1.067-.512-1.92-.512s-1.963.2986-3.328.896c-1.365.512-3.029 1.4933-4.992 2.944-2.987 2.2186-6.613 5.2053-10.88 8.96-4.181 3.6693-9.301 8.7893-15.36 15.36-.256.256-.555.384-.896.384-.427 0-.768-.2134-1.024-.64-.341-.512-.299-1.024.128-1.536 1.024-1.1094 2.56-2.816 4.608-5.12 2.133-2.3894 4.565-4.9494 7.296-7.68 2.816-2.7307 5.717-5.3334 8.704-7.808 2.987-2.4747 5.845-4.5227 8.576-6.144 2.816-1.6214 5.291-2.432 7.424-2.432 2.219 0 3.84 1.1093 4.864 3.328.171.3413.299.7253.384 1.152.085.3413.128.7253.128 1.152 0 1.536-.597 3.0293-1.792 4.48-1.109 1.4506-2.773 2.5173-4.992 3.2-.256.768-.384 1.9626-.384 3.584 0 1.4506.043 2.9866.128 4.608.171 1.6213.256 2.8586.256 3.712.085 2.3893-.085 4.9066-.512 7.552-.427 2.56-1.365 5.12-2.816 7.68 2.475-1.1094 4.864-2.56 7.168-4.352 2.389-1.8774 4.523-4.1387 6.4-6.784.256-.3414.555-.512.896-.512.427 0 .768.256 1.024.768.341.512.341.9813 0 1.408-1.621 2.304-3.627 4.4373-6.016 6.4-2.389 1.9626-4.779 3.5413-7.168 4.736-2.304 1.1946-4.224 1.792-5.76 1.792Zm-15.744 3.968c-2.048-.0854-3.797-.8534-5.248-2.304-1.365-1.4507-2.048-3.2854-2.048-5.504 0-1.7067.427-3.4134 1.28-5.12 1.024-2.304 2.56-4.8214 4.608-7.552 2.133-2.816 4.523-5.504 7.168-8.064 2.731-2.6454 5.419-4.8214 8.064-6.528.341-.1707.597-.256.768-.256.768 0 1.152.4266 1.152 1.28 0 .4266-.213.768-.64 1.024-2.475 1.536-4.992 3.584-7.552 6.144-2.475 2.4746-4.693 5.0773-6.656 7.808-1.963 2.6453-3.456 5.0346-4.48 7.168-.341.768-.597 1.4933-.768 2.176-.171.6826-.256 1.3226-.256 1.92 0 1.6213.512 2.9013 1.536 3.84 1.024.9386 2.219 1.408 3.584 1.408 1.963 0 3.968-.9387 6.016-2.816 2.048-1.9627 3.371-5.12 3.968-9.472.427-2.9014.683-5.0347.768-6.4.085-1.3654.171-3.0294.256-4.992 0-.8534.427-1.28 1.28-1.28s1.28.4266 1.28 1.28c-.085 2.1333-.299 4.736-.64 7.808-.256 2.9866-.853 5.9306-1.792 8.832-.939 2.9013-2.347 5.2906-4.224 7.168-1.877 1.792-4.352 2.6026-7.424 2.432Zm.128 7.8079c-1.024 0-2.347-.171-3.968-.512-1.621-.256-3.243-.768-4.864-1.536s-2.987-1.877-4.096-3.328c-1.109-1.4506-1.664-3.2853-1.664-5.5039v-.896c0-.3414.043-.6827.128-1.024.085-.6827.512-1.024 1.28-1.024.853 0 1.28.384 1.28 1.152 0 .3413-.043.6826-.128 1.024v.64c0 2.1333.683 3.84 2.048 5.1199 1.365 1.195 2.987 2.048 4.864 2.56 1.963.512 3.712.768 5.248.768 3.84 0 7.339-.469 10.496-1.408 3.243-1.024 6.016-2.219 8.32-3.5839 2.389-1.3654 4.224-2.6454 5.504-3.84.256-.256.555-.384.896-.384.512 0 .896.256 1.152.768.341.512.256.9813-.256 1.408-1.365 1.28-3.371 2.688-6.016 4.2239-2.56 1.451-5.547 2.731-8.96 3.84-3.413 1.024-7.168 1.536-11.264 1.536Z" fill="#F765B8"/></svg>