<svg width="153" height="142" viewBox="0 0 153 142" fill="none" xmlns="http://www.w3.org/2000/svg">
<path d="M5.61966 93.6636L22.5906 98.3236C21.8068 92.9225 21.2805 87.5965 23.1381 82.9471C26.8158 73.7342 39.1909 69.0152 44.8819 60.7687C50.4816 52.6564 50.4709 39.3899 57.9174 32.5768C65.1278 25.9785 78.303 27.1168 87.1508 22.0809L76.2949 3C40.2593 23.5036 15.901 56.6292 5.61966 93.6581V93.6636Z" fill="#6BE5D0" stroke="black" stroke-width="3" stroke-miterlimit="10"/>
<path d="M22.5909 98.3296L147.862 132.738L150.831 132.706C150.884 132.695 150.911 132.637 150.885 132.588L87.1511 22.0867C78.2979 27.1226 65.1227 25.99 57.9177 32.5829C50.4712 39.3959 50.4819 52.6622 44.8822 60.7745C39.1912 69.021 26.8161 73.7403 23.1384 82.9532C21.2862 87.6026 21.8071 92.9286 22.5909 98.3296Z" fill="#FFF5DC" stroke="black" stroke-width="3" stroke-miterlimit="10"/>
<path d="M105.861 109.91C110.113 109.91 113.56 106.464 113.56 102.212C113.56 97.9595 110.113 94.5125 105.861 94.5125C101.609 94.5125 98.1624 97.9595 98.1624 102.212C98.1624 106.464 101.609 109.91 105.861 109.91Z" fill="#F765B8" stroke="black" stroke-width="3" stroke-miterlimit="10"/>
<path d="M76.6227 65.2892C84.5574 65.2892 90.9897 58.8567 90.9897 50.9221C90.9897 42.9874 84.5574 36.5552 76.6227 36.5552C68.688 36.5552 62.2557 42.9874 62.2557 50.9221C62.2557 58.8567 68.688 65.2892 76.6227 65.2892Z" fill="#F765B8" stroke="black" stroke-width="3" stroke-miterlimit="10"/>
<path d="M69.5948 98.7746C76.5688 98.7746 82.2224 93.121 82.2224 86.147C82.2224 79.1731 76.5688 73.5195 69.5948 73.5195C62.6209 73.5195 56.9673 79.1731 56.9673 86.147C56.9673 93.121 62.6209 98.7746 69.5948 98.7746Z" fill="#F765B8" stroke="black" stroke-width="3" stroke-miterlimit="10"/>
<path d="M20.6635 105.099L147.91 140.05L150.53 133.468L22.0593 98.1782C21.8499 99.7137 21.442 101.92 20.6635 105.093V105.099Z" fill="#FFF5DC" stroke="black" stroke-width="3" stroke-miterlimit="10"/>
<path d="M2.99979 100.246L20.47 105.046L21.619 98.0556L5.61985 93.6641L2.99979 100.246Z" fill="#6BE5D0" stroke="black" stroke-width="3" stroke-miterlimit="10"/>
</svg>
