<svg width="186" height="27" viewBox="0 0 186 27" fill="none" xmlns="http://www.w3.org/2000/svg">
<path d="M6.80801 10.2559C7.14935 8.80524 7.80001 7.81324 8.76001 7.2799C9.74135 6.72524 11.224 6.4479 13.208 6.4479C15.192 6.4479 16.664 6.6719 17.624 7.1199C18.584 7.54657 19.256 8.35723 19.64 9.5519C20.024 10.7466 20.216 12.5706 20.216 15.0239V17.8079C20.216 20.2612 20.0134 22.0852 19.608 23.2799C19.224 24.4532 18.52 25.2639 17.496 25.7119C16.4933 26.1599 14.9573 26.3839 12.888 26.3839C9.34668 26.3839 7.26668 24.7199 6.64801 21.3919V25.9999H0.696014V0.399902H6.80801V10.2559ZM6.84001 19.2479C7.03201 20.4852 8.18401 21.1039 10.296 21.1039C11.2987 21.1039 12.0347 21.0186 12.504 20.8479C12.9947 20.6559 13.3253 20.3252 13.496 19.8559C13.688 19.3866 13.784 18.6612 13.784 17.6799V15.2159C13.784 14.2132 13.6987 13.4772 13.528 13.0079C13.3573 12.5386 13.0267 12.2079 12.536 12.0159C12.0453 11.8239 11.2987 11.7279 10.296 11.7279C9.20801 11.7279 8.37601 11.9412 7.80001 12.3679C7.24535 12.7732 6.92535 13.4132 6.84001 14.2879V19.2479ZM22.264 20.4639C22.264 18.7572 22.4453 17.5092 22.808 16.7199C23.192 15.9092 23.8853 15.3546 24.888 15.0559C25.8907 14.7572 27.4587 14.6079 29.592 14.6079L35.672 14.5759V13.4879C35.672 12.7199 35.5867 12.1652 35.416 11.8239C35.2667 11.4612 34.968 11.2159 34.52 11.0879C34.0933 10.9599 33.4107 10.8959 32.472 10.8959C31.4267 10.8959 30.6587 10.9599 30.168 11.0879C29.6987 11.2159 29.3787 11.4612 29.208 11.8239C29.0373 12.1652 28.9627 12.7199 28.984 13.4879H22.904V12.7199C22.904 10.8852 23.128 9.54123 23.576 8.6879C24.024 7.83457 24.856 7.2479 26.072 6.9279C27.288 6.6079 29.1974 6.4479 31.8 6.4479H33.272C35.7467 6.4479 37.56 6.61857 38.712 6.9599C39.8853 7.2799 40.6853 7.89857 41.112 8.8159C41.5387 9.7119 41.752 11.1306 41.752 13.0719V25.9999H35.672V22.6079C35.2667 23.8666 34.552 24.8052 33.528 25.4239C32.504 26.0426 31.224 26.3626 29.688 26.3839L28.312 26.4159C26.584 26.4159 25.2933 26.2559 24.44 25.9359C23.608 25.5946 23.032 25.0186 22.712 24.2079C22.4134 23.3759 22.264 22.1279 22.264 20.4639ZM28.664 20.5279C28.664 20.9759 28.7387 21.3066 28.888 21.5199C29.0373 21.7332 29.3147 21.8826 29.72 21.9679C30.1467 22.0319 30.7867 22.0639 31.64 22.0639H31.96C33.304 22.0212 34.2534 21.8399 34.808 21.5199C35.384 21.1999 35.672 20.6666 35.672 19.9199V19.0879L30.648 19.1199C30.072 19.1199 29.6453 19.1626 29.368 19.2479C29.0907 19.3119 28.8987 19.4399 28.792 19.6319C28.7067 19.8239 28.664 20.1226 28.664 20.5279ZM43.8 19.5999H49.56V20.0159C49.56 20.5279 49.6667 20.9226 49.88 21.1999C50.0933 21.4559 50.4667 21.6372 51 21.7439C51.5547 21.8506 52.3333 21.9039 53.336 21.9039C54.2747 21.9039 54.9894 21.8612 55.48 21.7759C55.9707 21.6906 56.312 21.5412 56.504 21.3279C56.7174 21.1146 56.824 20.8159 56.824 20.4319C56.824 20.0266 56.5787 19.6852 56.088 19.4079C55.5973 19.1306 54.68 18.8746 53.336 18.6399L52.568 18.4799C50.3067 18.1172 48.5787 17.7012 47.384 17.2319C46.1254 16.7412 45.2614 16.1226 44.792 15.3759C44.3227 14.6079 44.088 13.5519 44.088 12.2079C44.088 10.5226 44.3013 9.28523 44.728 8.4959C45.176 7.70657 45.9867 7.17323 47.16 6.8959C48.3547 6.59724 50.2214 6.4479 52.76 6.4479H54.232C56.7067 6.4479 58.52 6.6079 59.672 6.9279C60.8454 7.2479 61.6454 7.8559 62.072 8.7519C62.4987 9.62657 62.712 11.0132 62.712 12.9119V13.4879H56.632V12.9119C56.632 12.3786 56.536 11.9732 56.344 11.6959C56.1734 11.3972 55.864 11.1946 55.416 11.0879C54.968 10.9599 54.328 10.8959 53.496 10.8959C52.3227 10.8959 51.5227 11.0026 51.096 11.2159C50.6907 11.4079 50.488 11.8026 50.488 12.3999C50.488 12.8052 50.6694 13.1252 51.032 13.3599C51.416 13.5732 52.12 13.7546 53.144 13.9039C54.5734 14.1386 55.736 14.3626 56.632 14.5759C57.528 14.7679 58.456 15.0026 59.416 15.2799C60.8667 15.7066 61.8587 16.3572 62.392 17.2319C62.9254 18.1066 63.192 19.3226 63.192 20.8799C63.192 22.4799 62.9467 23.6639 62.456 24.4319C61.9867 25.1786 61.1014 25.6906 59.8 25.9679C58.4987 26.2452 56.4507 26.3839 53.656 26.3839H52.184C49.752 26.3839 47.96 26.2239 46.808 25.9039C45.656 25.5839 44.8667 24.9866 44.44 24.1119C44.0134 23.2372 43.8 21.8719 43.8 20.0159V19.5999ZM65.048 16.4319C65.048 13.5092 65.2827 11.3652 65.752 9.9999C66.2214 8.63457 67.0854 7.70657 68.344 7.2159C69.624 6.7039 71.6293 6.4479 74.36 6.4479H75.832C78.5627 6.4479 80.568 6.6719 81.848 7.1199C83.1494 7.5679 84.0347 8.41057 84.504 9.6479C84.9734 10.8852 85.208 12.8266 85.208 15.4719V18.4799H71.448V18.5759C71.448 19.5359 71.5334 20.2506 71.704 20.7199C71.896 21.1679 72.248 21.4772 72.76 21.6479C73.272 21.8186 74.0614 21.9039 75.128 21.9039C76.152 21.9039 76.8987 21.8506 77.368 21.7439C77.8587 21.6372 78.1894 21.4559 78.36 21.1999C78.552 20.9226 78.648 20.4959 78.648 19.9199H85.048C85.048 21.7972 84.8134 23.1839 84.344 24.0799C83.896 24.9546 83.032 25.5626 81.752 25.9039C80.4934 26.2239 78.52 26.3839 75.832 26.3839H74.36C71.6507 26.3839 69.656 26.1386 68.376 25.6479C67.096 25.1359 66.2214 24.1972 65.752 22.8319C65.2827 21.4666 65.048 19.3332 65.048 16.4319ZM78.808 13.9679C78.7867 13.0719 78.68 12.4212 78.488 12.0159C78.296 11.5892 77.944 11.3012 77.432 11.1519C76.9414 10.9812 76.1734 10.8959 75.128 10.8959C74.0614 10.8959 73.272 10.9706 72.76 11.1199C72.248 11.2692 71.896 11.5466 71.704 11.9519C71.5334 12.3572 71.448 12.9972 71.448 13.8719V13.9679H78.808ZM87.896 6.8319H93.976V10.4799C94.3174 9.05057 94.8934 8.02657 95.704 7.4079C96.536 6.7679 97.6774 6.4479 99.128 6.4479C100.813 6.4479 102.061 6.56524 102.872 6.7999C103.704 7.03457 104.291 7.46124 104.632 8.0799C104.995 8.67724 105.219 9.60524 105.304 10.8639C105.645 9.34924 106.307 8.2399 107.288 7.5359C108.269 6.81057 109.571 6.4479 111.192 6.4479C113.219 6.4479 114.701 6.62924 115.64 6.9919C116.6 7.35457 117.251 8.02657 117.592 9.0079C117.955 9.9679 118.136 11.4932 118.136 13.5839L118.168 25.9999H112.088V14.5119C112.088 13.6372 112.013 12.9972 111.864 12.5919C111.736 12.1866 111.469 11.9092 111.064 11.7599C110.68 11.6106 110.072 11.5359 109.24 11.5359C107.192 11.5359 106.136 12.5919 106.072 14.7039L106.104 25.9999H100.056V14.5119C100.056 13.6586 99.9814 13.0292 99.832 12.6239C99.6827 12.1972 99.4054 11.9092 99 11.7599C98.5947 11.6106 97.976 11.5359 97.144 11.5359C95.032 11.5359 93.976 12.6559 93.976 14.8959V25.9999H87.896V6.8319ZM120.536 16.4319C120.536 13.5092 120.771 11.3652 121.24 9.9999C121.709 8.63457 122.584 7.70657 123.864 7.2159C125.144 6.7039 127.149 6.4479 129.88 6.4479H131.352C134.061 6.4479 136.056 6.6719 137.336 7.1199C138.616 7.5679 139.491 8.41057 139.96 9.6479C140.429 10.8852 140.664 12.8266 140.664 15.4719V18.4799H126.904V18.5759C126.904 19.5359 127 20.2506 127.192 20.7199C127.384 21.1679 127.736 21.4772 128.248 21.6479C128.76 21.8186 129.56 21.9039 130.648 21.9039C131.651 21.9039 132.397 21.8506 132.888 21.7439C133.379 21.6372 133.709 21.4559 133.88 21.1999C134.051 20.9226 134.136 20.4959 134.136 19.9199H140.504C140.504 21.7972 140.269 23.1839 139.8 24.0799C139.352 24.9546 138.499 25.5626 137.24 25.9039C135.981 26.2239 134.019 26.3839 131.352 26.3839H129.88C127.149 26.3839 125.144 26.1386 123.864 25.6479C122.584 25.1359 121.709 24.1972 121.24 22.8319C120.771 21.4666 120.536 19.3332 120.536 16.4319ZM134.296 13.9679C134.275 13.0719 134.168 12.4212 133.976 12.0159C133.784 11.5892 133.443 11.3012 132.952 11.1519C132.461 10.9812 131.693 10.8959 130.648 10.8959C129.56 10.8959 128.76 10.9706 128.248 11.1199C127.736 11.2692 127.384 11.5466 127.192 11.9519C127 12.3572 126.904 12.9972 126.904 13.8719V13.9679H134.296ZM143.32 6.8319H149.4V10.7039C149.763 9.1679 150.424 8.0799 151.384 7.4399C152.344 6.77857 153.72 6.4479 155.512 6.4479C157.453 6.4479 158.872 6.62924 159.768 6.9919C160.685 7.35457 161.304 8.02657 161.624 9.0079C161.965 9.9679 162.136 11.4932 162.136 13.5839L162.168 25.9999H156.088V15.0239C156.088 13.9999 156.003 13.2532 155.832 12.7839C155.661 12.2932 155.352 11.9626 154.904 11.7919C154.456 11.6212 153.741 11.5359 152.76 11.5359C150.541 11.5359 149.421 12.5492 149.4 14.5759V25.9999H143.32V6.8319ZM163.736 6.8319H165.944V2.7039H171.704V6.8319H177.176V11.9199H171.704V18.6399C171.704 19.1946 171.757 19.6106 171.864 19.8879C171.992 20.1439 172.205 20.3252 172.504 20.4319C172.803 20.5172 173.283 20.5599 173.944 20.5599H177.464V25.9999H173.304C171.064 25.9999 169.421 25.8399 168.376 25.5199C167.331 25.1786 166.605 24.5706 166.2 23.6959C165.816 22.8212 165.624 21.4452 165.624 19.5679V11.9199H163.736V6.8319ZM179.768 20.5599H185.24V25.9999H179.768V20.5599Z" fill="#FFF5DC"/>
</svg>
