<svg width="194" height="29" viewBox="0 0 194 29" fill="none" xmlns="http://www.w3.org/2000/svg">
<path fill-rule="evenodd" clip-rule="evenodd" d="M78.8395 2.3161C78.2483 2.82539 77.7699 3.42638 77.4119 4.10559V0.791394H69.169V15.9877C69.169 16.1798 69.1463 16.3069 69.1216 16.3857C69.1096 16.4239 69.098 16.4482 69.0899 16.4624C69.0848 16.4714 69.0808 16.4769 69.0784 16.4799C69.0771 16.4815 69.076 16.4827 69.076 16.4827C69.076 16.4827 69.0747 16.4841 69.0727 16.4853C69.0705 16.4867 69.0625 16.4914 69.0451 16.4974C69.0083 16.5101 68.9306 16.5279 68.7928 16.5279C68.2974 16.5279 67.5455 16.2921 66.5364 15.5866L64.9435 14.4729V17.2796C64.7835 17.052 64.5983 16.8404 64.3887 16.6474C63.5423 15.8681 62.3749 15.4626 61.0678 15.4626C59.7615 15.4626 58.5887 15.8675 57.7355 16.6433C57.2072 17.1236 56.8297 17.7209 56.6177 18.3947V12.9895H59.2107V0.791394H39.9943L39.0712 3.98138L38.2015 0.791394H11.2858L11.3567 5.54736H11.2858L11.316 7.5735L9.24194 0.791394H0V28.6956H7.23284L7.16206 23.9396H7.23284L7.20246 21.8985L9.27618 28.6956H37.4957L38.4177 25.3406L39.3042 28.6956H48.3497V23.9396L44.7165 14.7888L45.7819 12.0746V12.9895H48.3748V28.6956H56.6177V25.8562C56.8279 26.5396 57.2016 27.1463 57.7262 27.6358C58.5787 28.4311 59.7549 28.8478 61.0678 28.8478C62.3686 28.8478 63.5368 28.4287 64.3836 27.6337C64.5951 27.4352 64.782 27.2174 64.9435 26.9831V28.0845L65.6133 28.3074C67.0016 28.7694 68.4899 29 69.8812 29C72.1593 29 74.0858 28.4323 75.4383 27.1462C75.9891 26.6225 76.4186 26.0045 76.7342 25.3035V27.9287L77.3994 28.1536C78.9498 28.6778 80.92 29 82.6323 29C85.0566 29 87.1335 28.3477 88.6125 27.0361C90.1005 25.7164 90.8672 23.832 90.8672 21.5959C90.8672 20.7645 90.7654 19.9816 90.5378 19.2249C90.7576 18.4861 90.8672 17.6876 90.8672 16.8399C90.8672 15.1501 90.4453 13.7094 89.4907 12.3106V1.39183L88.8067 1.17503C87.2611 0.685135 85.7776 0.487012 84.4569 0.487012C82.2232 0.487012 80.258 1.09407 78.8395 2.3161ZM56.6177 21.1003C56.7315 21.4702 56.8932 21.8177 57.101 22.1364C56.8935 22.4483 56.7316 22.7885 56.6177 23.1506V21.1003ZM31.2654 12.7764V10.601L32.7947 14.2922L31.3294 18.1764V16.7106H30.4011V12.7764H31.2654Z" fill="black"/>
<path fill-rule="evenodd" clip-rule="evenodd" d="M131.975 28.6956V22.5167H131.999C134.668 22.5167 136.929 21.7381 138.523 20.2263C139.088 19.6903 139.556 19.0752 139.925 18.3918V28.6956H181.853L182.237 26.291H184.86L185.212 28.6956H193.5V23.9396L188.896 0.791394H178.174L175.104 16.7106H172.962L175.849 10.1285V5.54736H175.773L175.849 5.37251V0.791394H139.925V4.93826C139.553 4.24731 139.081 3.62608 138.511 3.08554C136.913 1.57082 134.654 0.791394 131.999 0.791394H123.732V28.6956H131.975ZM150.283 12.7764L148.168 17.5714V12.7764H150.283ZM159.426 16.7106L161.396 12.7764H163.82L162.057 16.771V16.7106H159.426Z" fill="black"/>
<path d="M121.358 23.9396V28.6956H112.596L111.079 27.2791C110.789 27.4437 110.491 27.5984 110.187 27.7429C109.635 28.0054 109.061 28.2344 108.466 28.4302L108.45 28.4356L108.433 28.4405C107.828 28.6175 107.194 28.7491 106.532 28.8367C105.859 28.946 105.167 29 104.458 29C102.63 29 101.005 28.7322 99.6123 28.1614L99.6056 28.1586L99.5991 28.1558C98.2163 27.5664 97.1101 26.7291 96.3297 25.6279C95.5476 24.5244 95.1665 23.2606 95.1665 21.8699C95.1665 20.9492 95.2828 20.1026 95.5356 19.3452C95.2871 18.6424 95.1665 17.8965 95.1665 17.1139C95.1665 15.9902 95.3397 14.9761 95.7236 14.0999L95.7288 14.0882C96.0884 13.2975 96.5842 12.5985 97.2142 11.9977C97.1505 11.586 97.1192 11.163 97.1192 10.7295C97.1192 9.94009 97.2591 9.19699 97.5531 8.51322C97.4734 8.30748 97.4041 8.10135 97.3457 7.89488L97.341 7.87825L97.3369 7.86148C97.1904 7.25797 97.1192 6.62778 97.1192 5.9735C97.1192 4.76886 97.4453 3.67906 98.1334 2.74805L98.1385 2.7411L98.1438 2.73423C98.8383 1.82926 99.7795 1.14982 100.929 0.684712L100.936 0.681907C102.101 0.220157 103.399 0 104.81 0C106.151 0 107.379 0.197819 108.479 0.615921C109.589 1.03815 110.502 1.67562 111.179 2.53979C111.886 3.42142 112.213 4.48453 112.213 5.66912C112.213 6.56103 112.056 7.39784 111.729 8.16687C112.059 8.85154 112.213 9.61099 112.213 10.4251L112.213 10.456L112.234 10.3794H119.27L118.933 11.5767C118.616 12.7005 118.165 13.8872 117.583 15.1354H119.27L118.933 16.3327C118.596 17.5284 118.106 18.7953 117.469 20.1318L117.442 20.1884L117.399 20.2777L121.358 23.9396Z" fill="black"/>
<path d="M1 24.118H6.216L6.024 10.55H6.088L10.024 24.118H17.48V1.78195H12.296L12.488 15.318H12.424L8.488 1.78195H1V24.118Z" fill="#53E6D0"/>
<path d="M19.4062 24.118H30.3183V18.518H25.6462V15.35H29.3903V10.326H25.6462V7.38195H30.2542V1.78195H19.4062V24.118Z" fill="#53E6D0"/>
<path d="M30.566 24.118H36.71L38.374 17.75H38.47L40.07 24.118H46.886L42.694 13.014L46.886 1.78195H40.742L39.078 7.82995H38.982L37.414 1.78195H30.63L34.79 12.342L30.566 24.118Z" fill="#53E6D0"/>
<path d="M49.3575 24.118H55.5975V7.60595H58.1895V1.78195H46.7655V7.60595H49.3575V24.118Z" fill="#53E6D0"/>
<path d="M61.046 24.278C63.19 24.278 64.662 22.838 64.662 20.694C64.662 18.614 63.222 17.206 61.046 17.206C58.87 17.206 57.398 18.614 57.398 20.694C57.398 22.838 58.87 24.278 61.046 24.278Z" fill="#53E6D0"/>
<path d="M69.8562 24.438C74.0802 24.438 76.3842 22.23 76.3842 17.814V1.78195H70.1442V16.758C70.1442 17.846 69.6642 18.326 68.7682 18.326C67.9682 18.326 67.0082 17.942 65.9202 17.142V23.766C67.2003 24.214 68.5762 24.438 69.8562 24.438Z" fill="#53E6D0"/>
<path d="M82.6028 24.438C87.0828 24.438 89.8347 21.91 89.8347 17.654C89.8347 15.222 88.9708 13.398 86.8268 11.318L84.6827 9.04595C84.1387 8.46995 83.9467 8.08595 83.9467 7.66995C83.9467 7.02995 84.3627 6.70995 85.0667 6.70995C85.8987 6.70995 87.0507 7.25395 88.4587 7.98995V2.13395C87.0187 1.65395 85.6428 1.46195 84.4268 1.46195C80.3307 1.46195 77.6107 3.79795 77.6107 7.76595C77.6107 9.71795 78.2827 11.638 80.0427 13.27L82.3148 15.638C82.8908 16.246 83.1787 16.726 83.1787 17.302C83.1787 18.102 82.6347 18.422 81.9307 18.422C80.9387 18.422 79.5307 17.814 77.7067 16.63V23.606C79.1467 24.118 81.0028 24.438 82.6028 24.438Z" fill="#53E6D0"/>
<path d="M104.772 0.949951C106.01 0.949951 107.108 1.14195 108.068 1.52595C109.028 1.90995 109.786 2.47528 110.34 3.22195C110.895 3.94728 111.173 4.84329 111.173 5.90995C111.173 7.38195 110.735 8.61929 109.861 9.62195C108.986 10.6246 107.898 11.4993 106.596 12.246L111.045 16.566C111.471 15.8406 111.844 15.0833 112.164 14.294C112.484 13.4833 112.751 12.6726 112.965 11.862H117.924C117.604 13.0566 117.135 14.3366 116.517 15.702C115.898 17.0673 115.108 18.3473 114.148 19.542L118.853 24.118H112.965L111.173 22.358C110.703 22.678 110.213 22.966 109.701 23.222C109.189 23.478 108.655 23.702 108.101 23.894C107.546 24.0646 106.959 24.1926 106.34 24.278C105.722 24.3846 105.082 24.438 104.421 24.438C102.693 24.438 101.21 24.1713 99.9725 23.638C98.7352 23.0833 97.7858 22.3153 97.1245 21.334C96.4632 20.3526 96.1325 19.222 96.1325 17.942C96.1325 16.854 96.2925 15.926 96.6125 15.158C96.9538 14.3686 97.4338 13.686 98.0525 13.11C98.6925 12.5126 99.4498 11.9686 100.325 11.478C99.7698 10.838 99.3218 10.2406 98.9805 9.68595C98.6605 9.10995 98.4258 8.54462 98.2765 7.98995C98.1485 7.43528 98.0845 6.84862 98.0845 6.22995C98.0845 5.14195 98.3618 4.20329 98.9165 3.41395C99.4925 2.62462 100.282 2.01662 101.285 1.58995C102.309 1.16328 103.471 0.949951 104.772 0.949951ZM103.108 14.326C102.703 14.6246 102.351 14.934 102.052 15.254C101.775 15.574 101.551 15.9153 101.381 16.278C101.231 16.6406 101.157 17.046 101.157 17.494C101.157 18.4113 101.498 19.1366 102.181 19.67C102.863 20.182 103.717 20.438 104.741 20.438C105.423 20.438 106.063 20.3526 106.66 20.182C107.258 20.0113 107.802 19.7766 108.293 19.478L103.108 14.326ZM104.741 4.62995C104.207 4.62995 103.695 4.76862 103.204 5.04595C102.735 5.30195 102.501 5.80328 102.501 6.54995C102.501 7.08328 102.628 7.59528 102.884 8.08595C103.162 8.57662 103.525 9.07795 103.973 9.58995C104.869 9.09928 105.551 8.60862 106.021 8.11795C106.511 7.62729 106.757 7.06195 106.757 6.42195C106.757 5.78195 106.543 5.32329 106.117 5.04595C105.69 4.76862 105.231 4.62995 104.741 4.62995Z" fill="#53E6D0"/>
<path d="M124.688 24.118H130.928V17.622H131.952C136.88 17.622 139.887 14.614 139.887 9.71795C139.887 4.78995 136.848 1.78195 131.952 1.78195H124.688V24.118ZM130.928 12.47V6.99795H131.184C132.784 6.99795 133.775 7.82995 133.775 9.74995C133.775 11.67 132.816 12.47 131.184 12.47H130.928Z" fill="#53E6D0"/>
<path d="M140.875 24.118H147.115V1.78195H140.875V24.118Z" fill="#53E6D0"/>
<path d="M148.327 24.118H160.999V18.518H155.783L161.255 5.39795V1.78195H148.807V7.38195H153.831L148.327 20.502V24.118Z" fill="#53E6D0"/>
<path d="M161.859 24.118H174.531V18.518H169.314L174.786 5.39795V1.78195H162.339V7.38195H167.363L161.859 20.502V24.118Z" fill="#53E6D0"/>
<path d="M174.848 24.118H180.928L181.312 21.59H185.664L186.016 24.118H192.224L188 1.78195H178.944L174.848 24.118ZM182.048 16.534L183.456 6.96595H183.52L184.928 16.534H182.048Z" fill="#53E6D0"/>
</svg>
