<svg width="412" height="85" viewBox="0 0 412 85" fill="none" xmlns="http://www.w3.org/2000/svg">
<g clip-path="url(#clip0_8484_457)">
<path d="M178.475 55.135V62.8092C178.475 71.0736 178.71 76.7399 182.961 84.2966H153.091C156.752 77.9202 157.577 75.087 157.577 67.6503V19.7169C157.577 9.09201 157.342 7.43913 153.091 0H178.475C212.477 0 212.595 55.135 178.475 55.135ZM178.475 52.7744C185.204 52.7744 185.086 2.36296 178.475 2.36296V52.7744Z" fill="#FFF5DC"/>
<path d="M233.727 26.9186V62.8092C233.727 71.0736 233.962 76.7399 238.331 84.2966H208.344C212.005 77.9202 212.83 75.087 212.83 67.6503V19.7169C212.83 9.09201 212.595 7.43913 208.344 0H238.331C233.255 8.73696 233.727 14.7583 233.727 26.9186Z" fill="#FFF5DC"/>
<path d="M297.952 84.2966H242.582V79.5731L271.861 13.223C282.013 -9.91725 253.444 8.61942 242.582 27.2736V0H297.952V5.43122L267.375 74.9695C258.875 94.3314 289.335 68.8306 297.952 36.4808V84.2966Z" fill="#FFF5DC"/>
<path d="M385.672 0L400.665 56.0802C403.736 67.4152 405.859 73.7892 412 84.2966H377.055C389.57 70.2484 380.833 51.7117 360.881 51.7117C357.22 65.2897 358.993 76.1498 371.743 84.2966H302.205V79.693L331.367 13.223C341.639 -9.91725 313.068 8.61942 302.205 27.2736V0H357.575V5.43122L326.878 74.9695C325.581 77.9202 323.69 81.936 328.059 81.936C344.705 81.936 355.45 60.8037 360.171 44.7476C363.239 34.1226 365.837 24.0878 367.49 18.0665C369.143 11.9276 364.302 4.13578 359.816 0.00239895H385.672V0ZM377.172 49.3511L369.38 19.9544L361.471 49.3511H377.175H377.172Z" fill="#FFF5DC"/>
<path d="M71.5367 80.888C110.201 80.888 141.545 67.9876 141.545 52.0743C141.545 36.1609 110.201 23.2605 71.5367 23.2605C32.8721 23.2605 1.52823 36.1609 1.52823 52.0743C1.52823 67.9876 32.8721 80.888 71.5367 80.888Z" fill="#6BE5D0"/>
<path d="M70.7282 77.0374C109.393 77.0374 140.737 64.1371 140.737 48.2237C140.737 32.3103 109.393 19.4099 70.7282 19.4099C32.0636 19.4099 0.719765 32.3103 0.719765 48.2237C0.719765 64.1371 32.0636 77.0374 70.7282 77.0374Z" fill="black" stroke="#6BE5D0" stroke-width="1.43937" stroke-miterlimit="10"/>
<path d="M27.5832 56.5433V38.3401H31.3256L37.3853 48.4996C37.5557 48.7875 37.7452 49.1449 37.9587 49.5696C38.1698 49.9942 38.3353 50.3492 38.4553 50.6395L38.6592 51.0473H38.7096C38.6424 49.7903 38.6088 48.7395 38.6088 47.8903V38.3425H42.2504V56.5457H38.6856L32.4723 46.4893C32.302 46.2014 32.1077 45.8488 31.8869 45.4338C31.6662 45.0188 31.4959 44.6661 31.3784 44.3782L31.1745 43.9704H31.1241C31.1913 45.2443 31.2248 46.3046 31.2248 47.1538V56.5481H27.5832V56.5433Z" fill="#FFF5DC"/>
<path d="M50.9034 56.9245C48.7995 56.9245 47.1442 56.2744 45.9376 54.9765C44.7309 53.6787 44.1288 52.0186 44.1288 49.9987C44.1288 47.9788 44.7309 46.4123 45.9376 45.0977C47.1418 43.783 48.6868 43.1257 50.5723 43.1257C52.6258 43.1257 54.2139 43.8382 55.3342 45.2656C56.4546 46.693 57.0159 48.6001 57.0159 50.9943H47.5449C47.6816 52.0306 48.0295 52.8319 48.5884 53.4004C49.1498 53.969 49.9126 54.2544 50.8794 54.2544C52.1532 54.2544 52.9929 53.7195 53.4007 52.6496H56.812C56.5577 53.8706 55.9124 54.8902 54.876 55.7058C53.8397 56.5215 52.5155 56.9269 50.9034 56.9269V56.9245ZM50.6227 45.7982C48.9435 45.7982 47.9335 46.7313 47.5928 48.5977H53.3983C53.3479 47.7653 53.0672 47.0912 52.5587 46.573C52.0501 46.0548 51.4048 45.7958 50.6227 45.7958V45.7982Z" fill="#FFF5DC"/>
<path d="M56.9367 56.5432L61.6986 49.6175L57.4476 43.481H61.3939L63.7113 47.2233H63.7617L65.9519 43.481H69.5407L65.4913 49.5911L70.1501 56.5408H66.0263L63.6081 52.2131H63.5578L60.7318 56.5408H56.9391L56.9367 56.5432Z" fill="#FFF5DC"/>
<path d="M70.2028 45.7719V43.4809H72.0116V39.4075H75.3989V43.4809H77.6396V45.7719H75.3989V52.6976C75.3989 53.5637 75.8308 53.9955 76.6968 53.9955L77.7163 53.9691V56.5144C77.191 56.5479 76.4689 56.5647 75.5525 56.5647C74.5497 56.5647 73.7101 56.3224 73.0312 55.8379C72.3523 55.3533 72.014 54.552 72.014 53.4317V45.7671H70.2052L70.2028 45.7719Z" fill="#FFF5DC"/>
<path d="M79.4699 56.5433V52.8513H83.1882V56.5433H79.4699Z" fill="#FFF5DC"/>
<path d="M85.2754 60.847C84.4934 60.847 83.8409 60.7966 83.3155 60.6935V58.225C84.0976 58.2082 84.6517 58.1194 84.9828 57.9587C85.3138 57.7979 85.4794 57.4357 85.4794 56.8767V43.4834H88.941V57.0543C88.941 58.3785 88.6532 59.3285 88.075 59.9066C87.4633 60.5351 86.5301 60.8494 85.2754 60.8494V60.847ZM85.4794 41.4467V38.3401H88.941V41.4467H85.4794Z" fill="#FFF5DC"/>
<path d="M96.4763 56.9245C94.6099 56.9245 93.1489 56.5143 92.0982 55.689C91.045 54.8662 90.4693 53.7411 90.3661 52.3161H93.5735C93.7942 53.7579 94.7442 54.4799 96.4259 54.4799C97.1887 54.4799 97.7789 54.3432 98.1963 54.0721C98.6113 53.801 98.82 53.4364 98.82 52.9782C98.82 52.8079 98.7912 52.6567 98.7313 52.52C98.6713 52.3833 98.5705 52.2609 98.4242 52.1506C98.2803 52.0402 98.1531 51.9515 98.0428 51.8843C97.9324 51.8171 97.7405 51.7475 97.4694 51.6804C97.1983 51.6132 96.9896 51.5628 96.8457 51.5268C96.7018 51.4933 96.4547 51.4477 96.1068 51.3877C95.759 51.3277 95.5167 51.2822 95.3799 51.2486C94.6675 51.1118 94.0845 50.9727 93.6359 50.8288C93.1849 50.6848 92.7147 50.4713 92.2229 50.193C91.7311 49.9124 91.3617 49.5309 91.1146 49.0463C90.8675 48.5617 90.7452 47.9812 90.7452 47.3023C90.7452 45.9445 91.2418 44.9081 92.2349 44.1957C93.2281 43.4832 94.5043 43.1257 96.066 43.1257C97.7453 43.1257 99.0671 43.512 100.024 44.2844C100.984 45.0569 101.531 46.1124 101.668 47.4534H98.537C98.4002 46.1796 97.5606 45.5439 96.0157 45.5439C95.32 45.5439 94.773 45.671 94.3724 45.9253C93.9742 46.1796 93.775 46.537 93.775 46.9952C93.775 47.1488 93.8038 47.2879 93.8638 47.415C93.9238 47.5422 94.0245 47.6525 94.1685 47.7461C94.3124 47.8397 94.4516 47.9164 94.5883 47.9764C94.725 48.0364 94.9193 48.0963 95.1736 48.1539C95.4279 48.2139 95.6486 48.2643 95.8357 48.3075C96.0229 48.3506 96.2772 48.401 96.5986 48.461C96.9201 48.521 97.1744 48.5665 97.3615 48.6001C97.9036 48.7201 98.3498 48.8256 98.6977 48.9192C99.0455 49.0127 99.4486 49.1663 99.9068 49.3774C100.365 49.5885 100.725 49.8284 100.989 50.0899C101.253 50.3538 101.48 50.7088 101.677 51.1598C101.871 51.6108 101.97 52.1314 101.97 52.7263C101.97 54.0169 101.464 55.0389 100.456 55.7946C99.4462 56.5502 98.1171 56.9269 96.4715 56.9269L96.4763 56.9245Z" fill="#FFF5DC"/>
<path d="M109.409 51.2848C109.409 49.8503 110.297 48.6748 112.069 47.7536C111.398 47.3721 111.062 46.8372 111.062 46.1487C111.062 45.4602 111.374 44.8149 111.995 44.2103C113.221 43.0085 114.946 42.2216 117.167 41.8474C118.163 39.8994 118.678 38.8919 118.722 38.8271C118.863 38.5704 119.156 38.3665 119.604 38.213C120.053 38.0594 120.346 37.9827 120.487 37.9827C120.761 37.9827 120.897 38.0954 120.897 38.3185C120.897 38.3761 120.828 38.5296 120.686 38.7791C120.156 39.7819 119.633 40.7798 119.12 41.7754C119.576 41.7994 119.931 41.9073 120.19 42.0993C120.446 42.2888 120.576 42.5431 120.576 42.8573C120.576 43.1716 120.468 43.4763 120.252 43.7713C120.036 44.0664 119.768 44.2967 119.444 44.4622C118.813 44.7933 118.196 44.9588 117.592 44.9588H117.467L116.982 45.928L117.119 45.916C117.45 45.916 117.69 46.0695 117.834 46.3766C117.978 46.6836 118.052 46.8852 118.052 46.9859C118.052 47.0867 118.024 47.1706 117.966 47.2402C117.908 47.3098 117.824 47.3841 117.716 47.4585C117.609 47.5329 117.532 47.5904 117.486 47.6336C117.441 47.6744 117.371 47.72 117.28 47.7704C117.189 47.8207 117.105 47.8591 117.026 47.8879C116.946 47.9167 116.855 47.9431 116.752 47.9695C116.649 47.9959 116.567 48.0103 116.51 48.0199C116.277 48.0702 116.14 48.0942 116.1 48.0942L115.865 48.1686C115.733 48.4349 115.584 48.7251 115.423 49.0394C115.262 49.3537 115.08 49.7207 114.876 50.1405C114.672 50.5603 114.509 50.889 114.384 51.1289C115.255 50.8146 116.136 50.3924 117.026 49.867C117.916 49.3417 118.441 48.9483 118.599 48.6868C118.755 48.4253 118.892 48.2957 119.01 48.2957C119.185 48.2957 119.343 48.4181 119.489 48.6628C119.633 48.9075 119.708 49.1378 119.708 49.3537C119.708 49.8838 119.398 50.4548 118.782 51.0689C118.165 51.6831 117.352 52.2204 116.344 52.6858C115.337 53.1512 114.32 53.4367 113.293 53.5446C112.48 55.3678 112.026 56.3586 111.933 56.5169C111.837 56.6753 111.671 56.7664 111.436 56.7904C111.201 56.8144 111.033 56.8288 110.932 56.8288C110.832 56.8288 110.719 56.7976 110.589 56.7352C110.46 56.6729 110.39 56.6153 110.378 56.5625C110.366 56.5097 110.342 56.4402 110.309 56.3562C110.275 56.2746 110.258 56.1715 110.258 56.0515C110.258 55.9316 110.644 55.08 111.414 53.4967C110.8 53.3647 110.313 53.1032 109.954 52.7122C109.594 52.3236 109.414 51.851 109.414 51.2944L109.409 51.2848ZM113.574 49.0106C112.405 49.5912 111.82 50.2245 111.82 50.913C111.82 51.2848 111.985 51.4935 112.316 51.5343C112.465 51.2536 112.679 50.8266 112.957 50.2533C113.235 49.6823 113.439 49.2673 113.571 49.0106H113.574ZM115.984 44.1983C115.279 44.4958 114.624 44.8556 114.02 45.2731C113.415 45.6929 113.113 45.976 113.113 46.1247C113.113 46.2734 113.266 46.3478 113.574 46.3478C113.598 46.3478 113.665 46.3406 113.773 46.3286C113.881 46.3166 114.049 46.2998 114.276 46.2782C114.504 46.2566 114.735 46.235 114.967 46.2087C115.109 45.9424 115.294 45.5777 115.526 45.1075C115.759 44.6397 115.912 44.3351 115.987 44.1935L115.984 44.1983Z" fill="#FFF5DC"/>
</g>
<defs>
<clipPath id="clip0_8484_457">
<rect width="412" height="84.2966" fill="white"/>
</clipPath>
</defs>
</svg>
