<svg width="36" height="36" viewBox="0 0 36 36" fill="none" xmlns="http://www.w3.org/2000/svg">
<g clip-path="url(#clip0_8348_251)">
<mask id="mask0_8348_251" style="mask-type:alpha" maskUnits="userSpaceOnUse" x="0" y="0" width="36" height="36">
<path d="M18 36C27.9411 36 36 27.9411 36 18C36 8.05888 27.9411 0 18 0C8.05888 0 0 8.05888 0 18C0 27.9411 8.05888 36 18 36Z" fill="black"/>
</mask>
<g mask="url(#mask0_8348_251)">
<path d="M18 36C27.9411 36 36 27.9411 36 18C36 8.05888 27.9411 0 18 0C8.05888 0 0 8.05888 0 18C0 27.9411 8.05888 36 18 36Z" fill="black"/>
<path d="M29.9016 31.504L13.8284 10.8H10.8V25.194H13.2227V13.8768L27.9998 32.969C28.6666 32.5229 29.3018 32.0331 29.9016 31.504Z" fill="url(#paint0_linear_8348_251)"/>
<path d="M25.4 10.8H23V25.2H25.4V10.8Z" fill="url(#paint1_linear_8348_251)"/>
</g>
</g>
<defs>
<linearGradient id="paint0_linear_8348_251" x1="21.8" y1="23.3" x2="28.9" y2="32.1" gradientUnits="userSpaceOnUse">
<stop stop-color="#FFF5DC"/>
<stop offset="1" stop-color="white" stop-opacity="0"/>
</linearGradient>
<linearGradient id="paint1_linear_8348_251" x1="24.2" y1="10.8" x2="24.1598" y2="21.375" gradientUnits="userSpaceOnUse">
<stop stop-color="#FFF5DC"/>
<stop offset="1" stop-color="white" stop-opacity="0"/>
</linearGradient>
<clipPath id="clip0_8348_251">
<rect width="36" height="36" fill="white"/>
</clipPath>
</defs>
</svg>
