<svg width="33" height="36" viewBox="0 0 33 36" fill="none" xmlns="http://www.w3.org/2000/svg">
<path fill-rule="evenodd" clip-rule="evenodd" d="M20.9688 4.53849C21.637 4.33514 22.0437 4.21894 22.0437 4.21894C22.1496 4.20361 22.2563 4.19391 22.3632 4.18989V36L0.401184 32.1944C0.401184 32.1944 3.07381 11.743 3.16097 11.0167C3.27717 10.0581 3.30622 10.029 4.32298 9.70945C4.35203 9.6804 5.74645 9.24465 7.75092 8.63459C8.05547 6.82749 8.71715 5.09922 9.69729 3.55078C11.0917 1.3139 12.8347 0.06474 14.5777 0.00663932C14.9944 -0.022316 15.4123 0.0436921 15.7997 0.199688C16.1872 0.355685 16.5342 0.5976 16.8146 0.9072C16.8291 0.93625 16.8509 0.958038 16.8727 0.979827C16.8945 1.00161 16.9163 1.0234 16.9308 1.05245C17.0259 1.02978 17.1236 1.02001 17.2213 1.0234C18.5576 1.0234 19.6906 1.80776 20.4459 3.26028C20.6546 3.67147 20.8295 4.09895 20.9688 4.53849ZM15.0577 6.37118C15.7097 6.16908 16.3508 5.97039 16.9599 5.78766C16.9889 4.82899 16.8727 3.40553 16.3789 2.35972C15.9134 2.59752 15.4911 2.91175 15.1297 3.28933C14.2394 4.34096 13.6032 5.5835 13.2705 6.92062C13.8649 6.74092 14.4658 6.55465 15.0577 6.37118ZM15.6236 1.45916C15.3055 1.27772 14.9437 1.18727 14.5777 1.1977C11.9051 1.2558 9.55204 5.4681 8.91293 8.25693L11.9632 7.32732C12.3118 5.55525 13.1543 3.69603 14.2582 2.50497C14.6559 2.08716 15.1166 1.73428 15.6236 1.45916ZM13.0063 19.0317C12.046 18.4166 11.2538 17.9091 11.2079 17.1754C11.1789 16.8268 11.2079 15.4614 13.3576 15.3162C14.2915 15.2583 15.2262 15.4174 16.0884 15.781L17.1923 11.5977C17.1923 11.5977 16.2336 11.1329 14.3453 11.2491C9.46489 11.5687 7.25706 14.9676 7.48946 18.3374C7.6362 20.5873 8.96326 21.5288 10.1253 22.3531C11.0338 22.9976 11.8414 23.5706 11.9051 24.6413C11.9157 24.8289 11.8885 25.0168 11.825 25.1937C11.7616 25.3705 11.6633 25.5329 11.536 25.6711C11.4087 25.8093 11.2549 25.9205 11.0837 25.9981C10.9126 26.0757 10.7276 26.1181 10.5397 26.1229C8.97103 26.2391 7.02466 24.7575 7.02466 24.7575L6.26935 27.9531C6.26935 27.9531 8.21572 30.0447 11.7599 29.8123C14.6939 29.638 16.7275 27.2849 16.5241 23.8279C16.3483 21.1723 14.4796 19.9753 13.0063 19.0317ZM17.599 2.27257C17.9565 3.28953 18.1334 4.36115 18.1219 5.43905C18.761 5.24538 19.342 5.07108 19.8649 4.91615C19.5744 4.01559 18.9353 2.53402 17.599 2.27257ZM32.1532 33.676L23.0314 35.9419V4.53849C23.6124 5.11949 25.1811 6.63011 25.1811 6.63011C25.1811 6.63011 27.7376 6.68821 27.8828 6.68821C27.9617 6.69155 28.0368 6.72246 28.0952 6.77555C28.1536 6.82864 28.1915 6.90054 28.2024 6.97872C28.2314 7.15302 32.1532 33.676 32.1532 33.676Z" fill="black"/>
</svg>
