<svg width="37" height="36" viewBox="0 0 37 36" fill="none" xmlns="http://www.w3.org/2000/svg">
<path d="M36.8257 18C36.8257 27.9411 28.7669 36 18.8257 36C8.88462 36 0.825745 27.9411 0.825745 18C0.825745 8.05887 8.88462 0 18.8257 0C28.7669 0 36.8257 8.05887 36.8257 18Z" fill="black"/>
<path fill-rule="evenodd" clip-rule="evenodd" d="M19.326 11C16.259 11 14.3427 12.5557 13.5756 15.667C14.7258 14.1113 16.0675 13.5281 17.6007 13.9167C18.4755 14.1385 19.1011 14.7824 19.7929 15.4954C20.9205 16.6564 22.2257 18 25.0759 18C28.1423 18 30.0591 16.4443 30.8257 13.3335C29.676 14.8891 28.3343 15.4724 26.8011 15.0833C25.9259 14.8615 25.3003 14.2176 24.6085 13.5051C23.4809 12.3431 22.1761 11 19.326 11ZM13.5756 18C10.5091 18 8.59237 19.5557 7.82574 22.667C8.9759 21.1113 10.3176 20.5281 11.8504 20.9167C12.7256 21.1385 13.3512 21.7824 14.043 22.4954C15.1706 23.6564 16.4754 25 19.326 25C22.3925 25 24.3092 23.4448 25.0759 20.3335C23.9257 21.8891 22.584 22.4724 21.0508 22.0837C20.176 21.8615 19.5504 21.2176 18.8586 20.5051C17.731 19.3441 16.4258 18 13.5756 18Z" fill="#FFF5DC"/>
</svg>
