<svg width="34" height="34" viewBox="0 0 34 34" fill="none" xmlns="http://www.w3.org/2000/svg">
<path fill-rule="evenodd" clip-rule="evenodd" d="M1.275 0H32.725C33.4291 0 34 0.570836 34 1.275V32.725C34 33.4292 33.4291 34 32.725 34H1.275C0.570836 34 0 33.4292 0 32.725V1.275C0 0.570836 0.570836 0 1.275 0ZM18.9004 18.0885V15.3H6.79999V18.0885H11.12V30.5045H14.5591V18.0885H18.9004ZM20.2715 30.1767C20.826 30.4594 21.482 30.6715 22.2392 30.8129C22.9965 30.9543 23.7945 31.025 24.6335 31.025C25.4512 31.025 26.2279 30.9472 26.9639 30.7917C27.6997 30.6362 28.3449 30.3799 28.8995 30.0229C29.4541 29.6659 29.8932 29.1995 30.2167 28.6233C30.5402 28.0471 30.702 27.335 30.702 26.4867C30.702 25.8716 30.6095 25.3327 30.4246 24.8697C30.2398 24.4066 29.9732 23.9948 29.6248 23.6343C29.2764 23.2738 28.8587 22.9504 28.3716 22.6641C27.8845 22.3779 27.3354 22.1075 26.7239 21.853C26.2759 21.6691 25.8742 21.4906 25.5187 21.3175C25.1631 21.1443 24.861 20.9675 24.6122 20.7873C24.3633 20.607 24.1714 20.4162 24.0363 20.2147C23.9012 20.0133 23.8337 19.7853 23.8337 19.5308C23.8337 19.2975 23.8941 19.0872 24.015 18.8999C24.1359 18.7126 24.3064 18.5517 24.5269 18.4174C24.7473 18.2831 25.0174 18.1789 25.3374 18.1046C25.6573 18.0305 26.0129 17.9933 26.4039 17.9933C26.6884 17.9933 26.9887 18.0145 27.3051 18.0569C27.6215 18.0994 27.9397 18.1648 28.2596 18.253C28.5796 18.3414 28.8907 18.4527 29.1929 18.5871C29.4951 18.7214 29.7741 18.8769 30.0301 19.0536V15.8832C29.511 15.6852 28.944 15.5385 28.3289 15.4432C27.714 15.3477 27.0082 15.3 26.2119 15.3C25.4014 15.3 24.6335 15.3866 23.9083 15.5598C23.183 15.733 22.545 16.0034 21.9939 16.371C21.4428 16.7386 21.0073 17.2069 20.6874 17.7759C20.3674 18.345 20.2075 19.0254 20.2075 19.817C20.2075 20.828 20.5007 21.6904 21.0874 22.4043C21.674 23.1183 22.5645 23.7227 23.7589 24.2175C24.2283 24.4085 24.6655 24.5957 25.0708 24.7796C25.476 24.9633 25.8262 25.1542 26.1213 25.3521C26.4163 25.5501 26.6492 25.7656 26.8199 25.9989C26.9905 26.2322 27.0759 26.4972 27.0759 26.7942C27.0759 27.0134 27.0225 27.2166 26.9158 27.4039C26.8091 27.5913 26.6474 27.7538 26.4305 27.8916C26.2137 28.0295 25.9436 28.1374 25.6201 28.215C25.2966 28.2928 24.9179 28.3317 24.4842 28.3317C23.7447 28.3317 23.0124 28.2027 22.2871 27.9447C21.562 27.6867 20.89 27.2996 20.2715 26.7836V30.1767Z" fill="black"/>
</svg>
